<?xml version="1.0" encoding="utf-8"?>
<!-- Generator: Adobe Illustrator 18.1.0, SVG Export Plug-In . SVG Version: 6.00 Build 0)  -->
<!DOCTYPE svg PUBLIC "-//W3C//DTD SVG 1.1//EN" "http://www.w3.org/Graphics/SVG/1.1/DTD/svg11.dtd">
<svg version="1.1" id="Layer_1" xmlns="http://www.w3.org/2000/svg" xmlns:xlink="http://www.w3.org/1999/xlink" x="0px" y="0px"
	 width="100px" height="100px" viewBox="0 0 100 100" enable-background="new 0 0 100 100" xml:space="preserve">
<g>
	<path fill="#FFFFFF" d="M5.6,0h88.7c3.1,0,5.6,2.5,5.6,5.6v88.7c0,3.1-2.5,5.6-5.6,5.6H5.6C2.5,100,0,97.5,0,94.4V5.6
		C0,2.5,2.5,0,5.6,0z"/>
	<g>
		<path fill="#2B3990" d="M54.9,27.8c-0.2,0.2-0.4,0.4-0.6,0.6c-0.2,0.2-0.4,0.4-0.7,0.5c0,0.2,0,0.4-0.1,0.6s-0.1,0.4-0.1,0.7
			c-0.3,0.2-0.5,0.4-0.5,0.8c-0.1,0.4-0.2,0.7-0.4,0.9c0,0,0,0.1-0.1,0.3s-0.2,0.3-0.3,0.5s-0.2,0.4-0.3,0.6
			c-0.1,0.2-0.1,0.4-0.1,0.6c-0.2,0-0.4,0.1-0.6,0.4c-0.2,0.2-0.3,0.5-0.4,0.7c-0.2,0.2-0.5,0.3-0.8,0.4c-0.3,0.1-0.5,0.2-0.7,0.5
			c-0.4,0-0.7,0.2-0.9,0.5s-0.5,0.5-0.8,0.7c-0.4,0.2-0.8,0.3-1.2,0.4c-0.4,0.1-0.8,0.2-1.3,0.4l-0.8,0.3c-1.3,0.5-2.5,0.7-3.6,0.9
			c-1.1,0.1-2.4,0.1-3.7-0.1c-0.3,0-0.6,0-0.8,0s-0.4,0-0.6,0.2c-0.3-0.2-0.6-0.3-0.9-0.2c-0.3,0.1-0.6,0.2-0.9,0.2
			c-0.5,0-1,0-1.5-0.1s-1.1-0.2-1.6-0.2s-1.1,0-1.6,0s-1,0-1.5-0.1c-0.1,0.1-0.1,0.2-0.2,0.3c0,0.1-0.1,0.3-0.2,0.5
			c0.1,0.4,0.2,0.7,0.1,0.9c0,0.2,0,0.3,0.2,0.5c-0.3,0.5-0.4,0.8-0.2,0.8c0.1,0,0.2,0,0.3,0.1c0,0.5-0.1,0.8-0.1,1s0,0.3,0,0.5
			s0,0.4-0.1,0.5c0,0.2,0,0.3,0.1,0.4C27.1,44.8,27,45,27.1,45s0.1,0,0.1,0.1c-0.1,0.6-0.1,1.1,0,1.5s0,0.9-0.2,1.4
			c0.2,0.2,0.2,0.4,0.2,0.6s0,0.5-0.1,0.8s-0.1,0.5-0.2,0.8C27,50.5,27,50.7,27,51c0,0.6,0.1,1.1,0.1,1.6s0.1,0.9,0.2,1.4
			c-0.1,0.2-0.2,0.4-0.1,0.6c0,0.2,0.1,0.4,0.2,0.7c0.1,0.2,0.2,0.4,0.2,0.6c0.1,0.2,0.1,0.4,0.1,0.5c0.3,0.3,0.7,0.6,1.1,0.8
			s0.8,0.5,1.2,0.7c0.3,0,0.7-0.1,1-0.2c0.3-0.1,0.7-0.1,1.1,0.2c0.9-0.1,1.8-0.1,2.9,0c1.1,0.1,2,0.2,2.7,0.4c0,0.2,0,0.4,0,0.5
			s-0.1,0.3-0.1,0.5c-0.5-0.1-0.9-0.2-1.4-0.2c-0.5-0.1-0.9,0-1.3,0.2C34.8,59,34.7,59,34.6,59c-0.2,0-0.4,0.1-0.6,0.2
			c-0.5-0.2-0.9-0.4-1.4-0.3c-0.5,0-0.9,0-1.3-0.1C31,59,30.6,59.1,30.1,59s-0.9-0.2-1.3-0.3c-1,0.1-1.9,0.1-2.8,0s-1.9-0.1-3,0
			c-0.7,0.1-1.2,0.1-1.6,0.2c-0.4,0-0.9,0-1.3,0.1c-0.5,0-0.9,0-1.4,0s-0.9,0-1.3-0.1C16.6,59,16.1,59,15.7,59
			c-0.4,0-0.8-0.1-1.3-0.2C14.2,58.9,14,59,13.7,59s-0.6,0-0.9,0c-0.3,0-0.6,0-0.8,0.1c-0.3,0-0.5,0.1-0.7,0.3c-0.4,0-0.8,0-1.3,0
			c-0.4,0.1-0.9,0.1-1.5,0.1c0-0.2-0.1-0.3-0.3-0.3S7.9,59,7.9,58.8s0.2-0.5,0.6-0.7c1.2,0.2,2.6,0.1,4-0.3c1.4-0.4,2.7-0.7,3.8-0.9
			c0.5-0.3,0.7-0.7,0.8-1.1c0.1-0.4,0.1-0.8,0.2-1.1c-0.2-0.3-0.4-0.5-0.5-0.7c0.2-0.1,0.4-0.3,0.5-0.6s0.2-0.6,0.3-0.9
			c0-0.3,0-0.6,0-0.9c-0.1-0.3-0.2-0.4-0.4-0.5c0.4-0.5,0.5-1,0.4-1.4s-0.3-0.7-0.5-0.8c0.3-0.5,0.5-1.1,0.5-1.6s0-1.1-0.1-1.7
			c-0.4-0.6-0.4-1.1-0.1-1.3c0.3-0.3,0.5-0.7,0.5-1.2c0-0.4-0.1-0.8-0.2-1.2c-0.2,0-0.4,0.1-0.6,0.3c-0.2,0.1-0.4,0.2-0.6,0.1
			c0.3-0.4,0.4-0.6,0.4-0.7c0,0,0-0.1,0-0.2c0.1-0.1,0.2-0.2,0.4-0.3c0.2-0.1,0.4-0.1,0.5-0.2c-0.1-0.2-0.1-0.4,0.1-0.5
			s0.2-0.3,0.2-0.5c-0.1-0.1-0.2-0.1-0.3-0.1c-0.1,0-0.2,0-0.4-0.1c0.1-0.5,0.2-0.8,0.4-1.1c0.2-0.3,0.2-0.7,0-1.1
			C17.3,37.1,17,37,16.7,37c0-0.4,0.1-0.6,0.3-0.7c0.2-0.1,0.4-0.3,0.5-0.6c0.1-0.6,0-1.2-0.2-1.6c-0.2-0.5-0.2-0.8,0.1-1.2
			c-0.1-0.5-0.1-0.9,0-1.4s0.1-1,0-1.4c-0.3-0.5-0.4-0.7-0.2-0.8c0.1-0.1,0.2-0.3,0.3-0.5c0-0.7,0.1-1.2,0.2-1.5s0-0.5-0.4-0.7
			c0.1-0.5,0.2-0.9,0.4-1.4c0.1-0.5,0.1-1-0.1-1.6c-0.3,0-0.5,0.1-0.6,0.4c-0.1,0-0.2-0.1-0.2-0.1c-0.1,0-0.2,0-0.4,0
			c0.1-0.5,0.2-0.7,0.2-0.8c0.1-0.1,0.2-0.1,0.3,0c0.3-0.2,0.5-0.5,0.5-0.7s0.1-0.5,0.1-0.8s0-0.6-0.1-0.8c-0.1-0.2-0.2-0.4-0.3-0.5
			c0.2-0.3,0.4-0.6,0.4-0.9c0.1-0.2,0.2-0.6,0.3-0.9c-0.3-0.2-0.5-0.2-0.5-0.2c-0.1,0-0.2,0.1-0.3,0.1c-0.2-0.2-0.3-0.3-0.3-0.5
			c0-0.1,0.1-0.3,0.2-0.4s0.2-0.3,0.3-0.4c0.1-0.1,0.2-0.3,0.2-0.5c-0.2-0.1-0.3-0.2-0.5-0.4c-0.1-0.1-0.3-0.2-0.5-0.3
			c0-0.2,0-0.3,0-0.3c0-0.1,0-0.2,0-0.4c-0.1-0.1-0.3-0.2-0.7-0.2c0-0.5-0.2-0.8-0.6-1c-0.5-0.2-0.8-0.4-1.2-0.6
			c-0.2,0-0.4,0.1-0.6,0.1c-0.2,0-0.4-0.1-0.6-0.2c-0.6,0.1-1.1,0.1-1.5,0.1s-0.8,0.1-1.2,0.5c-0.2,0-0.5,0.1-0.6,0
			c-0.2,0-0.4,0-0.6,0.1c-0.2-0.2-0.3-0.5-0.3-0.7c-0.4,0-0.8-0.1-1.1-0.3c0.1-0.3,0.3-0.5,0.6-0.6c0.3,0,0.6-0.1,0.8-0.3
			c1,0.2,2,0.2,2.9,0.1c0.9-0.1,1.9-0.2,2.9-0.2c0.4,0.2,0.8,0.2,1.2,0.1c0.4-0.1,0.8-0.2,1.2-0.1c0.5,0,0.9,0.1,1.3,0.2
			c0.4,0.1,0.8,0.1,1.3,0.1c0.4,0,0.8-0.1,1.2-0.2c0.4-0.1,0.8-0.1,1.1-0.1c0.2,0,0.5,0.1,0.7,0.2c0.2,0.1,0.4,0.1,0.7,0.1
			c1.3-0.3,2.6-0.4,3.9-0.3c1.3,0.1,2.6,0.1,3.8,0c0.8-0.1,1.5,0,2.1,0.2s1.2,0.2,1.8,0c0.3,0.1,0.7,0.2,1.1,0.3
			c0.4,0.1,0.8,0.1,1.1,0c1,0.1,2.1,0.2,3.3,0.2c1.2,0.1,2.4,0.2,3.5,0.4c0.3,0,0.6,0.1,0.8,0.2c0.2,0.1,0.4,0.2,0.7,0.4
			c0.2-0.2,0.4-0.2,0.5,0s0.3,0.2,0.5,0.1c0.2,0.5,0.6,0.7,1.2,0.8c0.6,0.1,1.2,0.2,1.7,0.3c0.2,0.2,0.4,0.5,0.5,0.7
			c0.1,0.3,0.4,0.5,0.8,0.6c0.2,0.4,0.4,0.6,0.5,0.6s0.2,0.1,0.3,0.2c0,0.2,0,0.4,0.2,0.6c0.1,0.2,0.3,0.3,0.5,0.5s0.3,0.3,0.4,0.5
			c0.1,0.1,0.2,0.3,0.2,0.5c0.5,0.3,0.7,0.7,0.9,1.4c0.1,0.6,0.3,1.2,0.6,1.6c-0.2,0.3-0.1,0.7,0.1,1.1c-0.2,0.6-0.2,1.2,0.1,1.7
			c-0.1,0.2-0.2,0.4-0.2,0.7c-0.1,0.3-0.1,0.5-0.1,0.7s0.1,0.4,0.2,0.5c0.1,0.1,0.3,0.1,0.6,0c0,0.2,0,0.4,0.2,0.5
			C54.9,27.4,55,27.6,54.9,27.8z M19.9,13.4c-0.2,0-0.4,0.1-0.7,0.1s-0.5,0-0.7,0.1c-0.5-0.3-0.8-0.4-0.7-0.1c0,0.6,0.3,0.8,0.7,0.8
			c0.4-0.1,0.8-0.2,1.3-0.4L19.9,13.4z M24,54c-0.6-0.1-1,0.1-1.4,0.4c-0.4,0.4-0.8,0.6-1.2,0.7c-0.1,0.2-0.2,0.4-0.4,0.5
			c-0.2,0.1-0.4,0.1-0.6,0.2c-0.1,0.2-0.3,0.4-0.5,0.6c-0.2,0.1-0.5,0.3-0.7,0.4s-0.5,0.3-0.7,0.4c-0.2,0.2-0.4,0.4-0.4,0.7
			c0.3,0.1,0.6,0.1,0.8,0c0.2-0.1,0.4-0.1,0.6-0.2c0-0.3,0.1-0.5,0.2-0.6s0.3-0.3,0.4-0.4c0.4-0.1,0.7-0.3,0.9-0.6
			c0.2-0.3,0.5-0.4,1-0.3c0-0.2,0.2-0.5,0.3-0.6c0.2-0.2,0.4-0.3,0.6-0.4c0.2-0.1,0.4-0.2,0.7-0.3C23.7,54.3,23.9,54.2,24,54z
			 M23.1,52.8c-0.2-0.2-0.4-0.3-0.6-0.4c-0.1-0.1-0.2,0-0.4,0.1c-0.1,0.5-0.2,0.8-0.3,0.8c-0.1,0-0.2,0.1-0.3,0.1
			c-0.1,0-0.3,0-0.4,0s-0.3,0.1-0.3,0.2c-0.5,0.2-0.6,0.3-0.6,0.4c0.1,0.1,0.1,0.2,0.1,0.3c-0.3,0-0.5,0.1-0.7,0.1s-0.3,0.2-0.3,0.5
			c-0.2,0.1-0.5,0.3-0.7,0.5s-0.4,0.5-0.4,0.9c0.2,0,0.5-0.1,0.6-0.3c0.2-0.2,0.3-0.3,0.4-0.5c0.1-0.1,0.3-0.3,0.5-0.4
			c0.2-0.1,0.4-0.1,0.8,0c0-0.2,0.1-0.4,0.2-0.5s0.3-0.2,0.4-0.4c0.4-0.3,0.8-0.6,1-0.8C22.4,53,22.7,52.9,23.1,52.8z M26.5,21.6
			v-0.7c-0.4,0-0.6,0-0.7,0h-0.1h-0.1c0,0-0.1-0.1-0.1-0.3c-0.1,0.1-0.2,0.1-0.3,0.2c-0.1,0-0.2,0.1-0.2,0.3c-0.1-0.3,0-0.5,0.2-0.6
			c0.2,0,0.4,0,0.5,0c0.3,0.2,0.5,0.3,0.5,0.3c0.1,0,0.1,0,0.2,0c-0.1-0.2-0.1-0.4-0.1-0.6s0.1-0.4,0.1-0.5c0-0.2,0.1-0.3,0.1-0.5
			c0-0.1-0.1-0.3-0.3-0.3c0.2-0.1,0.3-0.2,0.4-0.5c0.1-0.2,0.1-0.4,0.1-0.7c0-0.2-0.1-0.4-0.3-0.5c-0.2-0.1-0.4-0.1-0.7,0
			c-0.2,0.3-0.4,0.5-0.5,0.7c-0.1,0.1-0.2,0.3-0.3,0.5c-0.3,0.3-0.5,0.4-0.7,0.4c-0.1,0-0.3-0.1-0.5-0.2c0,0.1,0,0.3,0,0.4
			s0,0.3-0.2,0.4c-0.3,0-0.6,0.1-0.7,0.2s-0.3,0.2-0.5,0.3c-0.2-0.1-0.3-0.2-0.4-0.1c-0.1,0-0.2,0.1-0.3,0.2
			c-0.1,0.1-0.2,0.2-0.3,0.3c-0.1,0.1-0.2,0.2-0.3,0.2c0,0.2,0,0.3,0.1,0.4s0.1,0.2,0.1,0.3c-0.4,0.1-0.8,0.3-1.2,0.6
			c0.3-0.5,0.4-0.9,0.2-1.1c-0.1-0.2,0-0.3,0.3-0.2c0.2-0.2,0.5-0.4,0.8-0.6c0.3-0.1,0.6-0.3,0.8-0.6c0.2,0,0.3,0,0.5,0
			c0.1,0,0.2,0,0.3-0.2c0-0.3,0.2-0.6,0.6-0.9c0.3-0.3,0.7-0.5,1.2-0.8c0.2-0.2,0.4-0.5,0.7-0.7c-0.3,0-0.7,0-1.1,0.1
			S23.5,17,23.1,17c0.1-0.2,0.1-0.4,0-0.5s-0.1-0.2,0.1-0.2s0.4,0,0.6,0.1s0.3,0.1,0.5,0c-0.1-0.2-0.3-0.2-0.6-0.2
			c-0.2,0-0.3-0.1-0.2-0.4c-0.2,0.1-0.4,0.3-0.5,0.5s-0.3,0.3-0.5,0.5c-0.2,0.4-0.3,0.8-0.5,1.1c-0.2,0.3-0.4,0.4-0.8,0.3
			c-0.1,0.2-0.2,0.3-0.4,0.4c-0.2,0-0.3,0.1-0.4,0.2c-0.1,0.3-0.2,0.4-0.3,0.3c0-0.1-0.2-0.1-0.3-0.1c-0.2,0.1-0.3,0.2-0.4,0.4
			c-0.1,0.2-0.2,0.2-0.5,0.2c0,0.4-0.1,0.7-0.2,0.9c-0.1,0.2-0.2,0.3-0.4,0.2c0.1,0.2,0.1,0.4,0,0.6s-0.1,0.4,0.2,0.5
			c0.1,0,0.2-0.1,0.3-0.2c0.1-0.1,0.2-0.2,0.4,0c0,0.2,0.1,0.3,0.3,0.2c0.2-0.1,0.4-0.2,0.6-0.1c-0.1,0.4-0.3,0.6-0.5,0.7
			c-0.2,0-0.3,0.1-0.5,0.2c-0.5,0.3-0.7,0.6-0.6,0.9c0,0.3,0,0.5-0.1,0.7c0.2,0.1,0.3,0.2,0.2,0.5c0,0.2,0,0.4,0.2,0.6
			c0.2,0,0.4-0.1,0.5,0c0.1,0,0.2,0.1,0.3,0.2c0.4-0.1,0.6-0.4,0.6-0.7c0.2-0.4,0.4-0.6,0.6-0.5s0.2,0.1,0.2,0
			c-0.1-0.2-0.1-0.3,0-0.5s0.2-0.3,0.3-0.4c0.1-0.1,0.3-0.2,0.5-0.3C22,23,22.1,23,22.2,23c-0.1,0.1-0.2,0.2-0.2,0.4
			c-0.1,0.2-0.2,0.2-0.4,0.1c0,0.4,0,0.6-0.1,0.7c0.6-0.2,1.1-0.4,1.5-0.8c0.1-0.5,0.3-0.9,0.5-1s0.4-0.2,0.6-0.3
			c0.2-0.2,0.4-0.4,0.5-0.4s0.2,0,0.4-0.1l-0.5,0.5c-0.4,0.1-0.6,0.2-0.7,0.3c-0.1,0.1-0.2,0.1-0.3,0c-0.1,0.2-0.1,0.4,0,0.5
			s0.2,0.2,0.3,0.3c0-0.1,0.1-0.2,0.2-0.3c0.1-0.1,0.1-0.2,0.2-0.3c0.3,0.1,0.7,0.1,1.1-0.1C25.8,22,26.2,21.8,26.5,21.6z
			 M26.8,29.2c-0.6,0.1-1.1,0.3-1.4,0.5c-0.4,0.2-0.7,0.5-1.1,0.8c-0.6,0-1,0.2-1.1,0.7c-0.3,0.2-0.7,0.3-1,0.4s-0.6,0.3-0.8,0.6
			c-0.5,0.2-0.9,0.5-1.3,0.7c-0.4,0.3-0.8,0.6-1.1,0.9c0.3,0,0.5,0,0.6-0.1s0.3-0.2,0.5-0.2c-0.2,0.2-0.4,0.4-0.7,0.6
			c-0.2,0.2-0.5,0.2-0.7,0.2c-0.1,0.2-0.2,0.4-0.3,0.6c-0.1,0.2-0.1,0.4,0.1,0.6c0.3-0.1,0.5-0.2,0.6-0.4c0.1-0.1,0.3-0.2,0.6-0.3
			c-0.2,0.1-0.3,0.3-0.4,0.4c-0.1,0.1-0.2,0.2-0.4,0.3c0,0.2,0,0.3,0.2,0.4c0.2,0.1,0.3,0.1,0.3,0.1c-0.3,0.1-0.5,0.3-0.7,0.6
			s-0.1,0.6,0.1,0.9c0.3,0,0.6-0.1,0.8-0.2c0.2-0.1,0.4-0.1,0.5,0.1c-0.1,0.3-0.4,0.4-0.9,0.3c0,0.2,0,0.3-0.2,0.4
			c-0.1,0.1-0.2,0.2-0.3,0.4c0.2,0.1,0.4,0.1,0.5,0s0.2-0.1,0.3,0c-0.2,0.1-0.4,0.3-0.5,0.5s-0.2,0.5-0.2,0.8
			c0.3-0.2,0.7-0.4,1.1-0.6s0.6-0.4,0.7-0.7c0.5-0.2,0.7-0.3,0.8-0.1c-0.3,0.3-0.4,0.5-0.5,0.4c0-0.1-0.1-0.1-0.2-0.1
			c-0.3,0.3-0.7,0.6-1,0.9c-0.3,0.3-0.7,0.5-1,0.7c-0.1,0.6-0.1,1.1-0.1,1.5s0,0.7,0,1.1c0.3,0,0.5,0,0.7-0.1c0.1,0,0.3-0.1,0.4-0.2
			c0,0.2,0,0.4,0.1,0.5s0.1,0.3,0,0.5c-0.4,0.2-0.8,0.4-1.2,0.8c-0.4,0.4-0.4,0.8,0,1.2c0.2-0.1,0.4-0.2,0.5-0.4s0.2-0.4,0.3-0.6
			c0.7-0.3,1.2-0.6,1.6-0.9c0.4-0.2,0.7-0.6,0.9-1c0.1,0.3,0.2,0.4,0.3,0.2c0.1-0.1,0.3-0.2,0.6-0.3c0,0.2,0.3,0.3,0.7,0.3
			c0.2-0.4,0.3-0.6,0.3-0.7c-0.5,0-0.8,0.1-0.8,0.1c-0.1,0-0.1,0-0.2-0.1c0.2-0.1,0.4-0.2,0.6-0.4c0.2-0.1,0.4-0.3,0.6-0.4
			c0.1,0.1,0.2,0.1,0.4-0.2c0.2-0.2,0.4-0.3,0.6-0.1c-0.2,0.1-0.4,0.2-0.6,0.3s-0.3,0.3-0.4,0.5c0.5,0.1,0.9,0,1.2-0.2
			s0.6-0.4,1.1-0.5c0-0.4,0.1-0.6,0.1-0.7c-0.4,0.1-0.6,0.2-0.7,0.2c-0.1,0.1-0.2,0.1-0.3,0.2c0-0.2-0.1-0.4-0.1-0.7
			s0.1-0.4,0.2-0.5c0.5-0.3,0.8-0.4,0.8-0.1c0-0.2,0-0.4,0-0.6c0-0.2,0-0.4-0.1-0.6c0.2-0.5,0.2-0.8,0.2-0.9c-0.1-0.1,0-0.3,0.1-0.4
			c-0.3-0.4-0.5-0.5-0.6-0.5c0,0.1-0.1,0.1-0.3,0.1c0-0.3,0.2-0.4,0.3-0.4c0.2,0,0.3,0,0.4-0.2c0-0.1-0.1-0.3,0-0.5
			c0-0.2,0-0.3-0.2-0.4c-0.3-0.3-0.6-0.4-0.9-0.3c-0.3,0.1-0.5,0.2-0.6,0.2c0.3-0.3,0.6-0.5,0.7-0.5c0.2,0,0.3-0.1,0.5-0.2
			c0.1-0.2,0.2-0.4,0.4-0.7c0.1-0.3,0.1-0.5,0.1-0.7c-0.5,0.2-0.9,0.4-1.3,0.6c-0.4,0.2-0.8,0.4-1.1,0.6c-0.2,0.4-0.5,0.6-0.7,0.7
			c-0.2,0-0.4,0.1-0.5,0.2c-0.3,0.2-0.5,0.3-0.5,0.4c0,0.1-0.1,0.2-0.2,0.2c-0.2,0.1-0.4,0.2-0.6,0.3s-0.5,0.2-0.7,0.4
			c-0.2,0.1-0.4,0.2-0.5,0.4c-0.1,0.1-0.3,0.1-0.6-0.1c0.5,0,0.7-0.1,0.6-0.2s-0.1-0.2,0-0.3c0.3,0,0.6-0.1,0.7-0.2
			c0.2-0.1,0.4-0.2,0.7-0.3c0.3-0.6,0.6-1,0.8-1.1c0.3-0.2,0.7-0.3,1.1-0.3c0-0.2,0.1-0.3,0.3-0.3c0.1,0,0.3,0,0.5,0
			c0.2-0.4,0.4-0.6,0.6-0.7c0.2-0.1,0.4-0.2,0.4-0.5c-0.2,0-0.5,0.1-0.7,0.2c-0.2,0.1-0.4,0.1-0.8,0.2c0.4-0.2,0.7-0.4,0.7-0.4
			c0.1,0,0.1-0.1,0.2-0.2c0.2,0,0.4,0,0.5,0c0.1-0.1,0.2-0.1,0.4-0.2c0.2-0.2,0.4-0.4,0.4-0.5c0.1-0.1,0.2-0.1,0.2-0.2s0-0.2,0-0.4
			c0-0.2,0-0.3-0.1-0.4c-0.4,0-0.7,0.1-1,0.3c-0.3,0.2-0.6,0.4-0.9,0.6c-0.3,0.2-0.6,0.4-0.9,0.5c-0.3,0.1-0.7,0.2-1.1,0.2
			c0.2-0.4,0.3-0.6,0.3-0.5c0,0.1,0.1,0.1,0.2,0.1c0-0.2,0.1-0.4,0.3-0.5c0.2-0.1,0.4-0.1,0.6-0.1c0.2-0.2,0.3-0.3,0.4-0.4
			c0-0.1,0.2-0.1,0.4-0.1c0.7-0.3,1.2-0.6,1.6-0.9C26.7,30.1,26.8,29.7,26.8,29.2z M26.6,13c-0.6,0-1,0.1-1.3,0.4
			c-0.3,0.3-0.6,0.5-1,0.5c-0.5,0.2-0.8,0.4-0.9,0.4s-0.2,0-0.3-0.1c-0.2,0.2-0.4,0.4-0.6,0.5s-0.4,0.3-0.6,0.5
			c-0.4,0.1-0.6,0.2-0.7,0.3c0,0.1-0.1,0.2-0.2,0.2c-0.2,0-0.3-0.1-0.4-0.2c-0.1-0.1-0.2-0.2-0.4-0.1c0,0.2,0.1,0.3,0.3,0.3
			c0.1,0,0.2,0.1,0.1,0.3c-0.4,0-0.7,0-0.8,0.1c-0.1,0.1-0.2,0.1-0.3,0.2c0.3-0.5,0.4-0.8,0.3-1.1c-0.5,0.2-0.9,0.4-1,0.5
			s-0.3,0.2-0.5,0.3c0.4,0.1,0.6,0.2,0.6,0.1s0-0.1,0.1-0.2c-0.1,0.5,0,0.7,0.1,0.6c0.2-0.1,0.2,0,0.2,0.2c-0.5,0.2-0.7,0.4-0.7,0.5
			s0,0.2-0.1,0.3c0.1-0.1,0.2-0.1,0.4-0.1c0.2,0,0.3,0,0.4-0.1c-0.3,0.5-0.6,0.8-0.7,0.8c-0.1,0.1-0.2,0.3-0.1,0.6
			c0.3,0,0.5-0.1,0.6-0.2s0.3-0.2,0.5-0.2c0.2,0.2,0.4,0.2,0.7,0.1c0.2-0.1,0.4-0.3,0.7-0.5c-0.2-0.1-0.4,0-0.7,0.1
			c-0.2,0.2-0.4,0.2-0.5,0.2c0.4-0.2,0.7-0.5,0.7-0.7c0.4,0.1,0.7,0.1,0.8,0.1c0.1,0,0.2-0.1,0.3-0.3c-0.1-0.1-0.1-0.2,0-0.3
			c0.1-0.1,0.1-0.2,0-0.4c0.3,0.1,0.5,0,0.6-0.2s0.2-0.3,0.5-0.3c0.1-0.4,0.2-0.6,0.2-0.7c0.1,0,0.2-0.1,0.2-0.1
			c0.1,0,0.2,0,0.2-0.1c0.1,0,0.1-0.1,0.1-0.2c-0.2-0.1-0.4-0.1-0.4,0.1c-0.1,0.1-0.2,0.1-0.2,0c0.1-0.2,0.3-0.3,0.5-0.3
			s0.5-0.1,0.8-0.2c0.4-0.5,0.7-0.8,0.9-0.8c0.2,0,0.5,0,0.6,0c0.1-0.2,0.2-0.4,0.4-0.5C26.5,13.5,26.6,13.3,26.6,13z M26.8,25.1
			c-0.2,0-0.3,0-0.4,0s-0.2,0.1-0.3,0.2c-0.1,0.1-0.2,0.1-0.3,0.1c-0.1,0-0.2,0-0.3-0.1c-0.2,0.1-0.4,0.2-0.6,0.3
			c-0.1,0.1-0.3,0-0.4-0.1c0-0.2,0.1-0.3,0.4-0.3c0.2,0.1,0.4-0.1,0.4-0.3c-0.6,0-1.2,0.2-1.9,0.6c0.5-0.1,0.8-0.1,0.8-0.1
			c0,0.2,0.1,0.4,0.2,0.4c0.1,0.1,0.2,0.1,0.3,0.1c-0.3,0.2-0.7,0.4-1,0.5c-0.4,0.1-0.6,0.3-0.8,0.6c-0.5,0.2-0.9,0.4-1,0.5
			s-0.2,0.3-0.3,0.5c-0.2,0.1-0.4,0.1-0.5,0s-0.3,0-0.5,0.1c-0.1,0.2-0.3,0.4-0.6,0.5c-0.3,0.1-0.5,0.3-0.7,0.7
			c-0.2,0.2-0.4,0.4-0.5,0.6c-0.1,0.1-0.2,0.3-0.4,0.4c0.5,0.2,0.9,0.3,1.2,0.3c0.4-0.3,0.6-0.5,0.7-0.6c0-0.1,0.1-0.2,0.2-0.2
			c0,0,0.1,0.1,0.2,0c0.1,0,0.3,0,0.4,0c0.2-0.1,0.4-0.2,0.5-0.3s0.1-0.2,0.1-0.3c0-0.1,0-0.3,0-0.4s0-0.2,0.1-0.3
			c0.5-0.1,0.8-0.3,1-0.5s0.5-0.4,1-0.4c0.3-0.2,0.5-0.4,0.6-0.5c0-0.1,0.1-0.2,0.2-0.3c0.1,0.2,0.2,0.2,0.3,0.1
			c0.1-0.2,0.3-0.1,0.3,0.1c-0.1-0.1-0.1-0.3,0.1-0.4c0.1-0.2,0.2-0.4,0-0.6c0.2,0,0.4,0,0.6-0.1c0.1-0.1,0.3-0.1,0.6-0.1
			c0-0.1,0.1-0.2,0.2-0.3C26.6,25.3,26.7,25.2,26.8,25.1z M22.5,30.7c-0.2,0.1-0.5,0.1-0.7,0.2c-0.2,0-0.4,0.1-0.5,0.2
			c0-0.4,0-0.6-0.1-0.6s-0.1-0.1,0-0.3c-0.4,0.1-0.7,0.2-0.8,0.5c-0.1,0.2-0.4,0.3-0.9,0.2c0.3,0.2,0.4,0.4,0.2,0.6
			c-0.1,0.1-0.3,0.2-0.6,0.1c-0.2,0.4-0.4,0.6-0.5,0.6s-0.2,0.1-0.2,0.1c-0.1,0.3-0.1,0.6-0.1,0.8s0,0.5,0.1,0.8
			c0.3-0.2,0.5-0.4,0.7-0.7c0.2-0.2,0.4-0.4,0.8-0.5c0.2-0.4,0.4-0.7,0.6-0.9c0.1,0.2,0.2,0.2,0.4,0.1c0.2-0.1,0.4-0.2,0.4-0.3
			c-0.1-0.2-0.2-0.3-0.3-0.2c-0.1,0.1-0.2,0-0.4-0.2c0.3,0,0.5-0.1,0.6-0.1s0.1,0,0.1,0.1c0.2,0,0.4,0,0.5-0.1s0.3-0.1,0.5-0.1
			L22.5,30.7z M25.7,42.3c-0.2,0.1-0.5,0.2-0.6,0.4c-0.2,0.2-0.4,0.2-0.7,0.2c-0.5,0.2-0.8,0.4-1,0.6c-0.2,0.2-0.4,0.4-0.7,0.3
			c-0.1,0.2-0.2,0.4-0.4,0.5c-0.2,0.1-0.3,0.1-0.5-0.1c-0.2,0.3-0.4,0.6-0.7,0.8c-0.3,0.2-0.6,0.3-0.9,0.4c-0.3,0.5-0.6,0.8-0.9,0.9
			c-0.3,0-0.5,0-0.6-0.1c0,0.3-0.1,0.6-0.2,0.9c-0.1,0.3,0,0.5,0.3,0.5c0.1-0.1,0.2-0.2,0.3-0.4c0.1-0.2,0.2-0.2,0.4-0.2
			c0.1-0.2,0.3-0.3,0.6-0.5c0.3-0.2,0.6-0.2,0.9-0.2c0.1-0.4,0.2-0.6,0.4-0.7c0.2,0,0.3-0.1,0.4-0.2c0.1,0.1,0.2,0.2,0.2,0.2
			c0.1,0.1,0.2,0.1,0.3,0.2c0-0.2,0-0.4-0.2-0.4s-0.2-0.1-0.2-0.3c0.4-0.1,0.7-0.3,1-0.6c0.2-0.3,0.6-0.5,0.9-0.5
			c0.1-0.1,0.2-0.2,0.3-0.4c0.1-0.2,0.2-0.2,0.4-0.1c0.2-0.1,0.3-0.3,0.5-0.4c0.1-0.1,0.3-0.3,0.5-0.3L25.7,42.3z M26.4,48
			c-0.3,0-0.5,0-0.7,0s-0.3,0-0.5-0.1c0.3,0.5,0.2,0.7-0.4,0.7c-0.1,0.2-0.3,0.3-0.4,0.5c-0.2,0.2-0.4,0.2-0.6,0.1
			c-0.2,0.2-0.3,0.3-0.5,0.3s-0.2,0-0.2-0.1c0-0.2,0.3-0.4,0.7-0.4c0.2-0.2,0.3-0.4,0.5-0.7s0.4-0.3,0.8-0.1
			c0.1-0.1,0.1-0.2,0.1-0.3s0-0.2,0.1-0.3c0.2-0.1,0.4-0.2,0.6-0.3c0.1-0.1,0.3-0.2,0.6-0.2c0-0.6,0.1-1.1,0.1-1.5s-0.1-0.5-0.5-0.5
			c-0.1,0-0.2,0.1-0.3,0.2c-0.1,0.1-0.2,0.3-0.4,0.3c-0.2,0.1-0.3,0.2-0.5,0.3S24.5,46,24.3,46c0,0.2-0.1,0.4-0.3,0.5
			c-0.2,0.1-0.5,0.2-0.6,0.4c0.5-0.5,0.9-1,1.4-1.3s0.9-0.7,1.3-1.1c0-0.2-0.1-0.4-0.3-0.5c-0.2-0.1-0.3-0.2-0.5-0.3
			c-0.1,0.1-0.2,0.2-0.3,0.3c-0.1,0.1-0.2,0.2-0.4,0.2c0.2,0.2,0.4,0.2,0.4,0.1c0-0.1,0.2-0.2,0.4-0.2c0,0.3-0.1,0.4-0.2,0.4
			s-0.3,0-0.4,0.1c-0.1,0.2-0.2,0.3-0.4,0.3C24.3,45,24.1,45,24,45.1c-0.1,0.1-0.3,0.2-0.4,0.2s-0.2,0.1-0.4,0
			c-0.4,0.3-0.6,0.6-0.7,0.7c0,0.1-0.2,0.2-0.6,0.2c-0.2,0.4-0.6,0.6-1.2,0.7c-0.2,0.5-0.7,0.8-1.2,0.9c0,0.2-0.1,0.4-0.2,0.5
			c-0.2,0.1-0.3,0.2-0.5,0.2c-0.1,0.6,0.1,0.9,0.5,0.9c0.2-0.1,0.4-0.1,0.5,0s0.2,0.1,0.3,0.2C20,49.7,20,49.8,20,49.9
			s0,0.2-0.2,0.3c-0.5,0.2-0.8,0.5-0.9,0.9c0,0.4,0,0.7,0.1,1.1c0.2,0,0.4,0,0.4-0.1c0.1-0.1,0.2-0.2,0.3-0.2c0.3,0.1,0.4,0,0.4-0.1
			c0-0.2,0.1-0.3,0.2-0.4c0.3-0.1,0.5-0.2,0.7-0.3c0.1-0.1,0.3-0.2,0.5-0.2c-0.1-0.3,0-0.5,0.2-0.6s0.4-0.1,0.7-0.2
			c0.2-0.2,0.3-0.3,0.4-0.4c0.1-0.1,0.2-0.2,0.2-0.3c0.3,0.1,0.6,0.2,0.9,0.2c0.3,0.1,0.4,0.2,0.3,0.4c-0.5,0.3-0.8,0.5-0.8,0.4
			s-0.1-0.1-0.2-0.1c-0.7,0.5-1.2,0.9-1.5,1.2c-0.3,0.4-0.8,0.6-1.4,0.7c0,0.2-0.1,0.4-0.2,0.5s-0.2,0.2-0.4,0.2
			c-0.1,0.1-0.2,0.1-0.3,0.2c-0.1,0.1-0.1,0.2,0,0.3c0.3-0.2,0.7-0.4,1.1-0.7c0.4-0.2,0.8-0.3,1.2-0.2c0.1-0.2,0.2-0.4,0.3-0.5
			c0.1-0.1,0.3-0.2,0.6-0.2c0.2-0.3,0.4-0.5,0.6-0.5s0.3-0.1,0.2-0.3c0.3,0,0.6-0.2,0.8-0.4c0.2-0.2,0.4-0.4,0.7-0.6
			c0.2,0,0.4-0.1,0.5-0.1s0.2,0,0.3-0.1l0.5-0.6c0-0.3,0-0.6,0.2-0.8C26.3,48.6,26.4,48.3,26.4,48z M26.4,22.3
			c-0.5,0.2-0.8,0.2-1,0.2c-0.2,0.2-0.4,0.2-0.6,0.2s-0.3-0.1-0.4-0.2c0.1,0.3,0.1,0.5,0.1,0.5c0,0.1-0.1,0.1-0.2,0.2
			c-0.4,0-0.7,0-0.7-0.1c-0.1,0.2-0.1,0.4-0.2,0.4c0,0.1-0.1,0.2-0.2,0.4c-0.2-0.2-0.4-0.2-0.5,0s-0.3,0.3-0.5,0.2
			c-0.2,0.2-0.4,0.4-0.6,0.5s-0.4,0.2-0.7,0.3c0,0.2-0.1,0.3-0.3,0.3c-0.2,0-0.4,0-0.5,0.1c-0.2,0.3-0.4,0.5-0.4,0.6
			S19.5,26,19.2,26c0,0.2-0.1,0.4-0.3,0.5c-0.2,0.1-0.2,0.2-0.2,0.5c0,0.2-0.1,0.4-0.2,0.6s0,0.4,0.2,0.5c0.2-0.2,0.4-0.5,0.7-0.7
			c0.3-0.2,0.6-0.3,1-0.2c0.2-0.2,0.5-0.5,0.7-0.8s0.4-0.4,0.8-0.2c0.1-0.2,0.2-0.5,0.4-0.6c0.2-0.2,0.4-0.2,0.6-0.1
			c0.2-0.3,0.4-0.5,0.6-0.6c0.1-0.1,0.4-0.1,0.7,0c0.5-0.2,0.7-0.4,0.7-0.6c0.2-0.4,0.4-0.7,0.6-0.8c0.1-0.1,0.3-0.1,0.4-0.1
			c0-0.2,0.1-0.4,0.3-0.5C26.4,22.8,26.4,22.6,26.4,22.3z M19.9,21.2c-0.2,0.2-0.4,0.3-0.4,0.2c0-0.1-0.1-0.1-0.2,0
			c0.2,0,0.4-0.1,0.4-0.1C19.6,21.3,19.7,21.3,19.9,21.2z M20.6,48.6c-0.2,0.2-0.4,0.3-0.5,0.5s-0.3,0.3-0.5,0.4
			c-0.1-0.5-0.1-0.7,0.2-0.8c0.2-0.1,0.5-0.2,0.7-0.3L20.6,48.6z M21.4,42.4c-0.1,0.4-0.3,0.6-0.7,0.7c-0.5-0.2-0.8-0.4-0.8-0.6
			c0.2-0.2,0.5-0.3,0.7-0.2C20.8,42.4,21,42.4,21.4,42.4z M22.7,33.2c-0.2,0.2-0.4,0.4-0.7,0.5c-0.3,0.1-0.6,0.3-0.9,0.5
			c-0.2,0.1-0.4,0.3-0.5,0.4c-0.1,0.1-0.3,0.3-0.6,0.3c0-0.1,0-0.2,0.1-0.3c0-0.1,0-0.2,0-0.3c0.4-0.2,0.7-0.3,1.1-0.5
			c0.3-0.1,0.6-0.4,0.8-0.7C22.3,33,22.6,33,22.7,33.2z M20.8,15.2c-0.2-0.1-0.4-0.2-0.5-0.2c-0.1-0.1-0.2,0-0.3,0.1
			c0.2,0,0.4,0.1,0.5,0C20.6,15.1,20.7,15.1,20.8,15.2z M22.9,46.9c-0.3,0.4-0.5,0.5-0.6,0.5s-0.2,0-0.2,0.1c0,0.3-0.1,0.5-0.2,0.5
			s-0.2,0.2-0.1,0.4c0.2,0.1,0.4,0.1,0.6,0c0.1-0.1,0.2-0.1,0.3,0c-0.7,0.3-1.2,0.8-1.6,1.4c-0.6,0-0.9,0-0.9-0.2
			c0.2,0,0.4-0.1,0.5-0.2c0.1-0.1,0.3-0.2,0.5-0.3c0.1-0.3,0.1-0.5,0-0.5c-0.1-0.1-0.3-0.1-0.5-0.2c0.1-0.1,0.2-0.2,0.4-0.3
			c0.2-0.1,0.3-0.2,0.4-0.3c0.2,0,0.3-0.1,0.5-0.2c0.1-0.2,0.4-0.3,0.7-0.4L22.9,46.9z M22.9,13.8c-0.2-0.5-0.4-0.6-0.5-0.4
			c-0.1,0.2-0.2,0.3-0.4,0.4c-0.1-0.1-0.2-0.1-0.4-0.1s-0.3,0-0.5-0.1c-0.3,0.4-0.5,0.6-0.6,0.6s-0.2,0-0.3,0.1
			c0.2,0.1,0.5,0.2,0.7,0.3s0.5,0.1,0.7,0.1c0.1-0.4,0.1-0.6,0.2-0.7c0-0.1,0.1-0.1,0.2-0.1C22.4,13.7,22.7,13.7,22.9,13.8z
			 M21.4,33.2c-0.2,0.1-0.3,0.2-0.5,0.3s-0.4,0.2-0.5,0.3c0.3-0.2,0.5-0.4,0.6-0.5C21,33.1,21.2,33.1,21.4,33.2z M21.1,16.4
			c-0.1,0.1-0.2,0.2-0.3,0.2c-0.1,0-0.3,0-0.4,0c0.1-0.2,0.2-0.2,0.3-0.2C20.8,16.5,20.9,16.5,21.1,16.4z M23.8,40.6
			c-0.1,0.2-0.2,0.2-0.3,0.1c-0.1-0.1-0.2-0.1-0.4,0c0.2,0.2,0.3,0.4,0.3,0.4s0.1,0.1,0.2,0.2c-0.4,0.1-0.7,0.3-0.9,0.5
			c-0.2,0.2-0.4,0.2-0.7,0c-0.1,0.1-0.2,0.2-0.2,0.4s-0.1,0.3-0.3,0.3c0-0.3,0-0.4-0.2-0.3c-0.2,0.1-0.4,0.1-0.5,0
			c0.1-0.2,0.3-0.4,0.6-0.5c0.3-0.1,0.5-0.2,0.4-0.4c0.5,0,0.7-0.1,0.7-0.4C23.1,40.5,23.5,40.4,23.8,40.6z M25.7,55
			c-0.4,0.3-0.7,0.5-0.9,0.5c-0.2,0-0.4,0.1-0.5,0.2c-0.3,0-0.6,0.1-0.8,0.2c-0.3,0.1-0.4,0.2-0.5,0.4c-0.1,0-0.3,0.1-0.6,0.2
			c-0.3,0.1-0.5,0.2-0.6,0.4c-0.4,0.2-0.6,0.4-0.7,0.4c0,0-0.2,0.1-0.4,0.1c0.6,0.2,1.2,0.4,1.6,0.5c0.5,0.1,0.9-0.1,1.2-0.5
			c-0.1-0.2-0.1-0.4,0-0.6c0.1-0.2,0.3-0.4,0.4-0.5c0.1-0.2,0.2-0.3,0.4-0.3c0.2-0.1,0.4-0.2,0.5-0.3c0.2,0,0.4-0.1,0.5-0.2
			C25.5,55.3,25.6,55.2,25.7,55z M21.4,23.5c-0.1,0.1-0.2,0.3-0.2,0.4c-0.1,0.1,0,0.3,0.1,0.3c0-0.1,0-0.3,0.1-0.4
			C21.5,23.7,21.5,23.6,21.4,23.5z M22.5,20.4c-0.2,0.2-0.4,0.4-0.5,0.5s-0.2,0.2-0.4,0.2c0-0.3,0.1-0.5,0.2-0.5s0.1-0.1,0.1-0.3
			L22.5,20.4L22.5,20.4z M23.7,37.3c-0.2,0.3-0.4,0.4-0.7,0.2c-0.2,0.2-0.4,0.3-0.5,0.4c-0.1,0.1-0.2,0.2-0.2,0.2
			c-0.1,0.1-0.1,0.2-0.2,0.2c-0.1,0.1-0.2,0.1-0.4,0.1c0.1-0.3,0.2-0.5,0.3-0.5c0.1,0,0.2,0,0.3,0.1c0.1-0.2,0.2-0.4,0.4-0.5
			c0.2-0.1,0.4-0.3,0.5-0.5L23.7,37.3z M24.9,29.2c-0.1-0.4-0.3-0.5-0.6-0.3c-0.3-0.1-0.7-0.1-1-0.1C23,29,22.7,29,22.4,29.1
			c-0.2,0.2-0.4,0.2-0.7,0.1c0,0.4,0,0.6,0,0.7c0.2,0.1,0.3,0.1,0.4,0.2c0.1,0,0.3,0,0.4-0.1c0.3,0.1,0.5,0.1,0.5-0.1
			c0.1-0.1,0.1-0.3,0.1-0.5c0-0.1,0.1-0.1,0.2-0.1c0.2,0,0.3,0,0.5,0L24.9,29.2z M26.3,54.6c0-0.6-0.1-1.2-0.2-1.8s-0.1-1.2,0.1-1.9
			c-0.2-0.1-0.3-0.2-0.2-0.4c0.1-0.2,0-0.3-0.2-0.4c-0.2,0.1-0.4,0.2-0.4,0.3c-0.1,0.1-0.3,0.2-0.6,0.1c0,0.2-0.1,0.3-0.3,0.3
			c-0.1,0.1-0.2,0.2-0.3,0.3c0.2,0.1,0.4,0.2,0.4,0.1c0.1-0.1,0.2-0.1,0.3-0.1c0.1,0,0.2,0,0.4,0c0.1,0,0.2,0.1,0.2,0.2
			c-0.1,0.2-0.3,0.5-0.6,0.7c-0.2-0.1-0.3-0.2-0.5-0.2c-0.1-0.1-0.3-0.1-0.6-0.1c0.1,0.2,0.2,0.3,0.4,0.2c0.2,0,0.3,0,0.3,0.2
			c-0.5,0.2-0.7,0.3-0.8,0.4c-0.1,0.1-0.3,0.2-0.5,0.2c0.2,0.1,0.2,0.2,0.2,0.4c0,0.1,0,0.3,0.1,0.4c0.5-0.2,0.7-0.2,0.8-0.2
			c0.1,0,0.2,0,0.3,0.1c0,0.2,0,0.4-0.2,0.5S24.1,54,24,54.1c-0.1,0.2-0.2,0.4-0.4,0.5c-0.1,0.1-0.3,0.2-0.5,0.3
			c-0.2,0.2-0.4,0.3-0.5,0.4c-0.1,0.1-0.2,0.1-0.2,0c0.3,0.5,0.5,0.6,0.6,0.5s0.2-0.2,0.2-0.4c0.3,0,0.5-0.1,0.6-0.2
			c0.1-0.1,0.2-0.1,0.4,0c0.5-0.3,0.8-0.6,1.1-0.7S26,54.6,26.3,54.6z M23.3,48.3c-0.1,0-0.2,0.1-0.3,0.2c-0.1,0.1-0.2,0.1-0.4,0
			c0.2-0.2,0.4-0.4,0.5-0.4C23.2,47.9,23.3,48,23.3,48.3z M23.1,53.1c0,0.2,0,0.3-0.1,0.4c-0.1,0.1-0.1,0.3,0,0.5
			c0.1-0.1,0.2-0.3,0.2-0.4C23.3,53.4,23.2,53.2,23.1,53.1z M23.9,51.6c-0.3,0-0.5,0-0.7,0.1c-0.1,0.1-0.2,0.2,0,0.3
			c0.1-0.1,0.2-0.1,0.4-0.2C23.7,51.8,23.8,51.7,23.9,51.6z M24.3,47.4c-0.1,0.2-0.2,0.3-0.3,0.4c-0.1,0.1-0.4,0.1-0.7,0.1
			c0.2-0.1,0.3-0.3,0.5-0.5C24,47.1,24.1,47.2,24.3,47.4z M25.9,35.9c-0.1,0.3-0.3,0.5-0.6,0.6c-0.3,0.1-0.6,0.1-0.8,0.1
			c-0.1,0.2-0.2,0.4-0.4,0.5c-0.2,0.1-0.4,0.1-0.7,0.1c0.1-0.1,0.2-0.3,0.4-0.4c0.2-0.1,0.3-0.1,0.5,0.1c0.3-0.3,0.6-0.5,0.8-0.7
			C25.3,36,25.6,35.9,25.9,35.9z M23.7,29.5c-0.2,0.5-0.3,0.8-0.1,0.8c0-0.1,0.1-0.2,0.2-0.4C23.9,29.7,23.9,29.6,23.7,29.5z
			 M24.5,19.2c0.1,0.2,0,0.3-0.3,0.4c-0.3,0-0.5,0.2-0.6,0.6c0.1-0.4,0.3-0.6,0.4-0.6C24.2,19.5,24.4,19.4,24.5,19.2z M24.7,35.2
			c-0.2,0.4-0.3,0.6-0.4,0.7c-0.1,0-0.2,0.1-0.2,0.3c-0.1-0.3-0.1-0.5,0.1-0.6C24.4,35.5,24.6,35.4,24.7,35.2z M25.9,16.6
			c-0.3-0.3-0.5-0.5-0.6-0.5s-0.1,0-0.2-0.2c-0.3-0.2-0.6-0.4-1-0.7c0.2,0.5,0.4,0.8,0.4,1.1c0.4,0,0.6,0,0.6,0
			c0,0.1,0.1,0.1,0.1,0.2C25.5,16.6,25.7,16.6,25.9,16.6C25.9,16.7,26,16.7,25.9,16.6z M25,40.1c0,0.2-0.1,0.3-0.3,0.4
			c-0.2,0-0.3,0.1-0.4,0.3c-0.1-0.2-0.1-0.3,0-0.4c0.1-0.1,0.1-0.2,0-0.4L25,40.1z M26.8,26.3c-0.4,0-0.7-0.1-0.9-0.2
			c-0.1,0.3-0.2,0.6-0.4,0.8c-0.2,0.2-0.5,0.2-1,0.1c0,0.4,0.1,0.5,0.2,0.3c0.1-0.1,0.3-0.1,0.5,0c0.2,0.2,0.4,0.3,0.5,0.2
			c0.1-0.1,0.2-0.2,0.4-0.2c0.2-0.3,0.4-0.5,0.6-0.5C26.8,26.7,26.9,26.6,26.8,26.3z M25.9,46.8c-0.3,0.3-0.5,0.4-0.6,0.4
			c0,0-0.1-0.1-0.2-0.1c-0.2,0.4-0.4,0.6-0.4,0.6s-0.1,0-0.2,0c0.1-0.2,0.1-0.5,0-0.7c0.2-0.2,0.4-0.2,0.6-0.1
			c0.2,0.1,0.4,0,0.3-0.3L25.9,46.8z M25.7,28.1c-0.1-0.2-0.3-0.2-0.5-0.1c-0.3,0.1-0.4,0.2-0.5,0.4c0.1,0.1,0.3,0.1,0.5-0.1
			C25.3,28.3,25.5,28.2,25.7,28.1z M26.7,56.5c0-0.2-0.1-0.4-0.2-0.5s-0.2-0.3-0.2-0.5c-0.3,0.2-0.5,0.4-0.7,0.6
			c-0.2,0.2-0.4,0.2-0.6,0.1c0,0.4,0.1,0.6,0.3,0.7c0.2-0.2,0.3-0.3,0.5-0.4S26.3,56.4,26.7,56.5z M27.8,57.6
			c-0.2-0.2-0.6-0.3-1-0.4c-0.4,0-0.7-0.2-1-0.4c-0.2,0.3-0.5,0.6-0.8,0.7c0.3,0,0.7,0.1,1.1,0.2c0.4,0.1,0.8,0,1.1-0.2L27.8,57.6z
			 M26.4,43c-0.4,0-0.6,0-0.7,0.2s-0.2,0.4-0.4,0.5c0.5,0,0.8-0.1,0.9-0.2C26.3,43.5,26.4,43.3,26.4,43z M26.5,24.4
			c-0.3-0.1-0.5-0.1-0.7-0.1c-0.1,0.1-0.3,0.1-0.3-0.1c-0.3,0.4-0.4,0.5-0.2,0.5c0.2,0,0.3,0.1,0.3,0.3c0.4-0.3,0.6-0.5,0.7-0.6
			C26.4,24.4,26.5,24.4,26.5,24.4z M27.2,14.6c-0.2,0-0.3,0-0.4,0c-0.1,0.1-0.2,0.1-0.3,0.2C26.3,14.9,26.2,15,26,15
			c-0.1,0.1-0.3,0.1-0.5,0.1c0.3,0.1,0.5,0.2,0.7,0.2s0.2,0.2,0.2,0.5c0.1-0.3,0.2-0.5,0.3-0.7C26.9,15,27,14.8,27.2,14.6z
			 M43.8,27.2c-0.2-0.1-0.3-0.2-0.4-0.2c-0.1-0.1-0.2-0.1-0.3-0.2c0.4-0.3,0.5-0.5,0.4-0.5s-0.1-0.1-0.1-0.3
			c0.1-0.1,0.2-0.3,0.4-0.6c0.1-0.3,0.1-0.5-0.1-0.7c-0.2,0-0.4,0-0.5,0c-0.1,0.1-0.3,0.1-0.4,0.2c-0.1,0.1-0.2,0.2-0.4,0.3
			c-0.1,0.1-0.3,0.1-0.5,0.1c-0.4-0.1-0.6-0.4-0.6-1.1c0.3-0.1,0.5-0.2,0.8-0.4c0.2-0.1,0.4-0.3,0.7-0.4c0.2-0.1,0.4-0.3,0.4-0.4
			c0.1-0.1,0-0.3-0.2-0.6c-0.3,0.2-0.5,0.4-0.6,0.3c-0.2,0.3-0.4,0.5-0.5,0.5s-0.2,0-0.2,0c-0.2,0.2-0.4,0.3-0.6,0.2
			c-0.1-0.1-0.2-0.2-0.2-0.4c0-0.2,0.1-0.4,0.2-0.6c0.1-0.2,0.3-0.4,0.6-0.4c0.2,0,0.3-0.1,0.4-0.3c0-0.1,0.2-0.2,0.5-0.2
			c0.2-0.4,0.1-0.8-0.1-1.2c-0.2,0-0.3,0-0.4,0c-0.1-0.1-0.2-0.1-0.4,0c0-0.2-0.1-0.3-0.2-0.3c-0.1-0.1-0.2-0.2-0.2-0.4
			c0.3-0.2,0.4-0.3,0.4-0.5c0-0.1-0.1-0.3-0.2-0.4c-0.1-0.1-0.3-0.3-0.5-0.4s-0.3-0.2-0.5-0.3c0.1-0.5,0-0.9-0.1-1.1
			c-0.3,0-0.6,0.1-0.9,0.2c-0.3,0.1-0.6,0.2-0.9,0.3c-0.1-0.1-0.2-0.2-0.2-0.2c-0.1-0.1-0.1-0.2-0.1-0.4c0.4-0.2,0.7-0.6,0.9-1.1
			c-0.2-0.1-0.3-0.1-0.5,0S38.4,16,38.2,16c-0.3-0.2-0.5-0.5-0.4-0.9c0-0.2-0.1-0.4-0.4-0.5c-0.3-0.1-0.5-0.1-0.8-0.2
			c-0.3,0-0.6-0.1-0.9-0.1c-0.3,0-0.6-0.1-0.8-0.2c-0.2,0-0.5,0-0.9,0s-0.7-0.1-0.9-0.2c-0.3,0.2-0.7,0.3-1.1,0.2s-0.8-0.2-1.2-0.1
			c-0.2-0.2-0.5-0.2-0.8-0.1c-0.4,0.1-0.7,0.2-1,0.1c-0.2,0.3-0.3,0.5-0.5,0.7s-0.4,0.4-0.5,0.6c0,0.5,0.1,0.9,0.1,1.1
			s-0.1,0.5-0.3,0.7c0,0.2,0,0.4,0.1,0.5s0,0.3-0.1,0.5c0.2,0.2,0.4,0.2,0.6,0.2s0.3,0.1,0.2,0.4c-0.2,0-0.3,0.1-0.2,0.3
			c0,0.2,0,0.3-0.1,0.4c-0.4,0.1-0.6,0.2-0.6,0.3c0,0.1,0,0.2-0.1,0.2c0.2,0.3,0.3,0.8,0.2,1.4c0,0.6,0,1.1,0.1,1.5
			c-0.2,0.4-0.3,0.6-0.2,0.6c0.1,0,0.1,0.1,0.1,0.2c-0.1,0.5-0.1,0.9,0.1,1.3c0.1,0.4,0.1,0.8-0.1,1.3c0.1,0.7,0.1,1.2-0.1,1.6
			s-0.2,0.8-0.1,1.2c0.2,0,0.3,0.1,0.3,0.2c0,0.2,0.1,0.3,0.3,0.3c0.1-0.2,0.3-0.3,0.7-0.4c0.1,0.3,0,0.6-0.2,0.7s-0.4,0.3-0.6,0.4
			s-0.4,0.3-0.6,0.5c-0.1,0.2-0.1,0.5,0,0.8c0.1-0.1,0.2-0.1,0.4,0c0.2,0.1,0.3,0.2,0.4,0.2c-0.2,0.5-0.5,0.8-0.9,0.9
			c0.1,0.3,0.1,0.5,0,0.7s0,0.4,0.2,0.6c0.4,0.4,0.4,0.6,0.2,0.6c-0.2,0-0.4,0.2-0.5,0.4s-0.1,0.5,0,0.8s0,0.6-0.2,0.9
			c0.1,0.1,0.2,0.2,0.2,0.3c0.1,0.1,0.1,0.2,0.2,0.3c0.6,0,1.2,0,1.9,0c0.7,0,1.4,0,2-0.1c0.8,0.3,1.7,0.3,2.5,0.1s1.7-0.4,2.5-0.4
			c0.3-0.1,0.6-0.2,0.8-0.3c0.3-0.1,0.4-0.3,0.5-0.7c1.1-0.2,2-0.5,2.8-1s1.4-1.1,1.8-2.1c0.1-0.3,0.2-0.6,0.2-0.7
			c0.1-0.2,0.1-0.3,0.2-0.5c0-0.2,0.1-0.4,0.1-0.6s0.1-0.3,0.2-0.4c0.1-0.3,0.2-0.7,0.4-1.2c0.1-0.5,0.1-1,0-1.6
			c0.2,0,0.3-0.1,0.3-0.4C43.9,27.5,43.9,27.3,43.8,27.2z M40.8,13.7c-0.2,0-0.4,0-0.7,0s-0.5-0.1-0.8-0.1s-0.6-0.1-0.8-0.1
			c-0.3,0-0.5,0-0.7,0.1c0.3,0.1,0.5,0.3,0.7,0.4c0.2,0.2,0.4,0.3,0.7,0.4c0.2-0.1,0.3-0.1,0.4-0.2c0,0,0.1,0,0.3,0.1
			c0.1-0.1,0.3-0.2,0.4-0.3C40.5,13.9,40.6,13.8,40.8,13.7z M50.5,31c-0.5,0.2-0.7,0.4-0.9,0.5c-0.1,0.1-0.2,0.2-0.3,0.2
			c-0.4-0.1-0.6-0.1-0.6,0s-0.1,0.2-0.2,0.2c-0.3-0.1-0.5-0.1-0.6,0.2c-0.1,0.2-0.3,0.3-0.7,0.2c-0.3,0.3-0.5,0.4-0.5,0.3
			c0-0.1-0.1-0.1-0.2-0.1c-0.3,0.3-0.4,0.5-0.3,0.5c0.1,0,0.1,0.1,0,0.2c-0.2,0-0.5,0-0.7,0.1s-0.4,0.3-0.5,0.4
			c-0.2,0.1-0.3,0.3-0.5,0.4c-0.2,0.1-0.4,0.2-0.7,0.2c0.1,0.1,0.1,0.2,0.1,0.2c-0.1,0.1-0.2,0.1-0.3,0.2c-0.1,0.1-0.3,0.2-0.5,0.2
			c-0.2,0.1-0.3,0.1-0.4,0.2c-0.2,0.1-0.3,0.2-0.4,0.4c-0.1,0.2-0.3,0.3-0.5,0.4c-0.2,0.2-0.4,0.3-0.6,0.3c-0.2,0-0.4,0.1-0.4,0.2
			c-0.7,0.3-1.2,0.6-1.4,0.8s-0.5,0.4-0.7,0.7c0.5,0,1.1,0,1.8,0c0.3-0.5,0.7-1,1-1.3c0.4-0.3,0.8-0.5,1.5-0.6
			c0.6-0.5,1.2-0.8,1.7-1.2c0.6-0.3,1.2-0.6,1.9-0.8c0.3-0.5,0.7-0.7,1-0.8c-0.1-0.3,0-0.5,0.3-0.5c0.3-0.1,0.5,0,0.6,0.2
			c0.2-0.4,0.4-0.7,0.8-0.8c0.4-0.2,0.8-0.4,1.2-0.5L50.5,31z M40.2,16.6c-0.1-0.2-0.3-0.2-0.5-0.1s-0.3,0.3-0.3,0.5
			c0.2,0,0.3,0,0.4-0.1C39.9,16.8,40,16.7,40.2,16.6z M41.8,13.8c-0.2-0.1-0.5-0.1-0.7-0.1c0.1,0.1,0.3,0.2,0.5,0.2
			C41.7,14.1,41.8,14,41.8,13.8z M44.6,14.5c-0.2-0.3-0.6-0.5-1.1-0.6s-1,0-1.3,0.2c0.1,0.1,0.1,0.2,0.2,0.3c0,0.1,0.1,0.2,0.2,0.3
			c-0.2,0.2-0.4,0.4-0.7,0.6c-0.3,0.1-0.5,0.4-0.7,0.7c0.5-0.2,0.9-0.4,1.1-0.5c0.3-0.1,0.5-0.1,0.7,0c0.2-0.3,0.4-0.4,0.6-0.5
			c0.1,0,0.3-0.1,0.4-0.2c-0.1-0.1-0.1-0.2,0.1-0.3C44.2,14.4,44.4,14.4,44.6,14.5z M43.4,15.8c-0.3-0.1-0.5-0.1-0.7,0
			s-0.3,0.1-0.4,0C42.1,16,41.9,16,41.8,16c-0.1,0-0.2,0.1-0.3,0.1c-0.1,0.2-0.1,0.3-0.2,0.4c0,0.1-0.1,0.2-0.1,0.4
			c0.5-0.1,0.8-0.2,1-0.3c0.2-0.1,0.4-0.1,0.7-0.2c-0.1-0.2-0.1-0.3,0.2-0.3S43.5,16,43.4,15.8z M47.6,16c-0.2,0-0.4-0.1-0.5,0
			c-0.1,0-0.3,0-0.4,0c-0.5,0.1-0.8,0.2-1.1,0.4c-0.3,0.2-0.6,0.2-0.9,0.1C44.3,16.8,44,17,43.8,17c-0.2,0.1-0.3,0.1-0.4,0
			c-0.1,0.2-0.2,0.3-0.4,0.5c-0.2,0.1-0.4,0.2-0.6,0.1c0,0.2-0.1,0.3-0.2,0.4c-0.1,0.1-0.1,0.2,0,0.5c0.9-0.2,1.5-0.4,2-0.6
			s0.9-0.4,1.4-0.8c0.2-0.2,0.6-0.4,1-0.5C47.1,16.5,47.4,16.3,47.6,16z M44.2,36.9c-0.4-0.1-0.6-0.2-0.6-0.3s-0.1-0.2-0.2-0.2
			c0,0.3-0.1,0.5-0.3,0.5c-0.3,0.1-0.4,0.2-0.5,0.5c0.2,0,0.6,0,0.9-0.1C43.9,37.3,44.1,37.2,44.2,36.9z M47.6,18.2
			c-0.1-0.3-0.3-0.3-0.6-0.2c-0.2,0.2-0.5,0.2-0.7,0.2c-0.1,0.2-0.3,0.3-0.6,0.4s-0.5,0.1-0.7,0c-0.3,0.2-0.5,0.4-0.6,0.5
			c0,0.1-0.1,0.2-0.3,0.2c-0.3,0.2-0.5,0.4-0.6,0.6c0,0.2-0.2,0.2-0.4,0.2c0.2,0.5,0.4,0.6,0.5,0.4s0.3-0.3,0.5-0.2
			c0-0.2,0-0.3,0.2-0.3s0.4,0,0.6,0c0.2-0.3,0.5-0.6,0.7-0.8c0.3-0.2,0.6-0.4,0.9-0.6c0.1,0,0.2-0.1,0.4-0.2
			C47.3,18.1,47.4,18.1,47.6,18.2z M50.1,29.6c-0.4-0.1-0.7,0-1,0.2s-0.6,0.3-0.8,0.5c-0.3,0.2-0.5,0.3-0.6,0.4
			c-0.1,0-0.3,0-0.5-0.1c-0.3,0.1-0.5,0.2-0.5,0.2s-0.1,0-0.2,0c0,0.2-0.2,0.4-0.4,0.6c-0.2,0.1-0.4,0.2-0.7,0.3
			c-0.1,0.2-0.3,0.4-0.6,0.4s-0.5,0-0.7-0.1c0,0.2,0.1,0.3,0.3,0.2c0.3-0.1,0.4,0,0.5,0.2c-0.3,0.2-0.5,0.2-0.7,0.2
			c-0.1,0.2-0.2,0.3-0.4,0.5c-0.1,0.1-0.2,0.3-0.4,0.4c0.4,0.3,0.6,0.3,0.7,0.2c0.1-0.2,0.3-0.3,0.5-0.4c0.2,0.1,0.4,0.1,0.5,0
			s0.2-0.1,0.3-0.2c0.1-0.2,0.2-0.4,0.4-0.5s0.4-0.1,0.6,0c0.3-0.3,0.7-0.6,1.1-0.7c0.5-0.2,0.8-0.5,1-0.9c0.2-0.2,0.5-0.4,0.8-0.6
			C49.7,30,49.9,29.8,50.1,29.6z M51.9,19.9c-0.1-0.5-0.3-0.9-0.7-1.1c-0.4-0.3-0.7-0.6-0.9-1c-0.2-0.3-0.6-0.7-1-1s-0.9-0.3-1.3,0
			c0.2,0,0.5,0,0.7,0.1c0.3,0.1,0.5,0.3,0.6,0.6c-0.2,0.2-0.4,0.4-0.6,0.7c-0.2,0.3-0.5,0.4-0.8,0.3c-0.2,0.3-0.5,0.5-0.9,0.7
			s-0.7,0.2-1,0.1c-0.1,0.5-0.3,0.9-0.6,1.1s-0.6,0.2-0.9,0c0,0.4-0.1,0.6-0.3,0.7c-0.1,0.1-0.3,0.2-0.3,0.3c0.4,0,0.6,0,0.7-0.1
			c0.1-0.1,0.3-0.1,0.5-0.1c0.2-0.3,0.5-0.5,0.9-0.6s0.7-0.2,1-0.5c0.1,0.3,0.2,0.5,0.4,0.5s0.4,0,0.5-0.1c0-0.2,0-0.4-0.1-0.4
			s-0.2-0.1-0.2-0.2c0.5-0.2,0.7-0.3,0.8-0.4c0.1,0,0.2-0.1,0.3-0.1c0.2-0.2,0.4-0.3,0.7-0.4s0.5-0.2,0.7-0.3c0,0.2,0.1,0.4,0.3,0.5
			c0.1,0.1,0.2,0.3,0.2,0.5c-0.5,0.2-0.9,0.5-1.3,0.8C49,20.7,48.5,20.9,48,21c0.2,0.2,0.5,0.4,0.8,0.4c0.4,0,0.5-0.1,0.4-0.5
			c0-0.1,0.2-0.2,0.5-0.2c0.3-0.1,0.6,0,0.9,0.2c0.3-0.3,0.5-0.4,0.5-0.3s0.1,0.1,0.2,0.1c0.1-0.2,0.2-0.3,0.2-0.4
			C51.6,20.1,51.7,20,51.9,19.9z M47,21.2c0-0.3-0.2-0.5-0.3-0.4c-0.2,0.1-0.4,0.1-0.6,0.1c-0.1,0.2-0.2,0.3-0.4,0.4
			s-0.4,0.2-0.6,0.3c-0.2,0.1-0.4,0.2-0.6,0.4c-0.2,0.1-0.3,0.3-0.3,0.5c0.4-0.1,0.8-0.2,1.1-0.4s0.7-0.3,1-0.5
			C46.5,21.3,46.7,21.1,47,21.2z M51.7,21c-0.6-0.2-1-0.3-1.2,0c-0.2,0.2-0.6,0.3-0.9,0.2c0,0.2-0.1,0.3-0.3,0.4
			c-0.1,0-0.3,0.1-0.5,0.1c-0.7,0.4-1.4,0.7-2,1.1c-0.6,0.3-1.2,0.6-1.9,0.9c-0.2,0.1-0.3,0.3-0.3,0.5s-0.1,0.4-0.2,0.5
			c0.4,0.3,0.6,0.5,0.7,0.5c0,0,0.1,0.1,0.2,0.1c0.2-0.2,0.4-0.4,0.7-0.5s0.4-0.3,0.5-0.5c0.1,0.1,0.2,0.2,0.3,0.2
			c0.1,0.1,0.2,0.1,0.4,0.1c0-0.2-0.1-0.3-0.2-0.3c-0.2,0-0.3-0.1-0.4-0.2c0.1-0.3,0.3-0.5,0.7-0.6s0.7-0.2,0.9-0.3
			c0-0.2,0.2-0.4,0.5-0.7c0.3-0.2,0.5-0.3,0.8-0.3c0.5-0.2,0.7-0.4,0.6-0.4c-0.1-0.1-0.1-0.1,0-0.1c0.5-0.2,0.8-0.3,1-0.4
			S51.4,21.2,51.7,21z M45.1,36.5c0-0.1-0.1-0.1-0.3-0.2c-0.2,0-0.3,0-0.4,0C44.6,36.4,44.8,36.5,45.1,36.5z M53.2,24.3
			c0-0.6,0-1.2-0.1-1.9c-0.1-0.6-0.3-1.1-0.6-1.4c-0.2,0.2-0.4,0.4-0.6,0.5c-0.2,0.1-0.5,0.2-0.9,0.2c0,0.2-0.1,0.4-0.2,0.5
			c-0.1,0.1-0.4,0.2-0.7,0.1c-0.4,0.3-0.8,0.7-1.1,1s-0.6,0.5-0.9,0.7c0.2,0,0.3,0,0.4,0c0.1,0,0.3,0,0.4,0.1c0-0.2,0.1-0.4,0.3-0.5
			s0.4-0.1,0.6,0c0-0.2,0-0.3,0.1-0.4s0.2-0.1,0.3-0.2c0.6-0.1,0.9-0.1,1,0.1c0,0.1,0.1,0.2,0.2,0.2c-0.1-0.2-0.1-0.4,0.1-0.4
			c0.1-0.1,0.3-0.1,0.5-0.2c0.1,0.1,0.2,0.2,0.2,0.3c0.1,0.1,0.1,0.2,0.2,0.3c-0.5,0.6-1,1.1-1.5,1.3c-0.5,0.3-0.9,0.6-1.2,1
			c-0.4,0.1-0.6,0.2-0.6,0.2c0,0.1,0,0.2,0,0.3c0.2,0,0.3,0,0.5-0.1c0.1-0.1,0.3,0,0.3,0.1c0.3-0.2,0.5-0.3,0.6-0.2
			c0,0.1,0.1,0.1,0.2,0.1l-0.1,1.1c-0.5,0-0.9-0.1-1.1-0.3c-0.1-0.2-0.2-0.2-0.5,0C48.8,27,48.5,27,48.1,27c-0.2,0.3-0.5,0.6-1,0.7
			c-0.5,0.2-0.8,0.3-1.1,0.4c-0.1,0.3-0.4,0.4-0.7,0.4c-0.3,0.3-0.5,0.5-0.6,0.7c-0.1,0.1-0.2,0.2-0.3,0.3c0.1,0.1,0.2,0.2,0.2,0.3
			c0,0.1-0.1,0.2-0.1,0.3c0,0.1-0.1,0.2-0.1,0.3c0,0.1,0,0.2,0.1,0.2c0-0.2,0.1-0.3,0.3-0.3s0.3-0.1,0.4-0.3
			c0.1,0.1,0.2,0.2,0.3,0.2s0.3,0.1,0.4,0.1c0.4,0.1,0.6,0.1,0.8,0s0.4-0.1,0.7-0.1c0.2-0.4,0.3-0.6,0.5-0.7c0.3,0,0.6-0.1,0.7-0.2
			c0.1-0.1,0.3-0.1,0.5,0c0.2-0.1,0.4-0.1,0.5-0.2c0.1,0,0.3-0.1,0.4-0.2c0.1-0.1,0.3-0.1,0.4-0.1c0.1,0,0.2,0,0.4,0.1
			c0-0.3-0.2-0.4-0.6-0.4c0.4-0.2,0.6-0.3,0.6-0.2c0,0.1,0,0.1,0.1,0.1c0.1-0.2,0.2-0.3,0.4-0.3s0.4,0,0.5,0.1
			c0.2-0.5,0.5-0.7,0.6-0.8c0.2-0.1,0.4-0.1,0.6-0.2c0.1-0.4,0.1-0.9,0.1-1.4C53.1,25.3,53.1,24.8,53.2,24.3z M49.7,24.4
			c-0.5,0.1-0.8,0.1-0.8,0c-0.1-0.1-0.2-0.1-0.4-0.1c0,0.3-0.1,0.5-0.3,0.5c-0.2,0.1-0.4,0.1-0.6,0.1c-0.4,0.2-0.5,0.4-0.4,0.5
			s0.1,0.1,0,0.2c-0.4,0.1-0.7,0.3-0.9,0.4c-0.2,0.2-0.5,0.2-0.7,0.1c0,0.3-0.1,0.6-0.4,0.9c-0.2,0.1-0.4,0.2-0.4,0.4
			c0,0.2,0.1,0.3,0.3,0.5c0.2-0.1,0.4-0.2,0.5-0.4c0.1-0.2,0.3-0.2,0.6-0.1c0.1-0.2,0.2-0.4,0.4-0.4c0.2-0.1,0.3-0.2,0.5-0.3
			c0.3-0.1,0.5-0.2,0.6-0.3c0.1-0.1,0.2-0.2,0.2-0.4c0.6-0.2,1-0.2,1-0.2c0.1-0.3,0.2-0.5,0.4-0.6c0.1-0.1,0.3-0.1,0.4,0.2
			C49.6,24.9,49.6,24.6,49.7,24.4z M46,35.7c-0.4-0.2-0.6-0.2-0.7-0.1c-0.1,0.1-0.2,0.2-0.2,0.3C45.7,36,46,35.9,46,35.7z
			 M46.4,15.5c-0.2,0-0.4-0.1-0.4-0.1c-0.1,0-0.2,0-0.5,0C46,15.7,46.3,15.7,46.4,15.5z M47.2,29.4c-0.5,0-0.7,0.2-0.7,0.6
			c-0.3,0.1-0.5,0.2-0.6,0.1c-0.1,0-0.1-0.1-0.2-0.2c0.3-0.2,0.5-0.4,0.6-0.7C46.9,29.1,47.2,29.2,47.2,29.4z M47.3,24.8
			c-0.3,0-0.6,0.1-0.8,0c-0.2,0-0.3-0.1-0.3-0.1C46.6,25,46.9,25,47,25C47.1,24.9,47.2,24.8,47.3,24.8z M47.5,34.9
			c-0.2,0-0.3,0-0.4,0c-0.1,0-0.2,0-0.3,0c0.2,0.3,0.3,0.6,0.2,0.7c-0.1,0.1-0.2,0.2-0.4,0.3c0.1,0,0.2,0,0.3,0
			c0.1-0.1,0.2-0.1,0.4,0c0-0.2,0.1-0.4,0.2-0.5C47.5,35.2,47.6,35.1,47.5,34.9z M47.7,21.8c-0.3-0.1-0.5-0.1-0.6,0s-0.2,0.1-0.3,0
			c0,0.4,0,0.5,0.1,0.5s0.2,0,0.4,0.1c0-0.2,0.1-0.3,0.2-0.3C47.6,22,47.7,22,47.7,21.8z M47.5,17.3c-0.4-0.3-0.6-0.2-0.8,0.3
			c0.2,0.1,0.3,0.1,0.4,0C47.3,17.4,47.4,17.3,47.5,17.3z M50,27.6c-0.6,0-1,0.2-1.4,0.6c-0.3,0.4-0.7,0.8-1.2,1
			c-0.4-0.3-0.5-0.5-0.3-0.6c0.1-0.1,0.3-0.2,0.3-0.2c0.2-0.2,0.5-0.4,0.7-0.5c0.2,0,0.4,0,0.4,0c0-0.1,0.1-0.1,0.2,0
			c0-0.2,0-0.3,0.2-0.4c0.1-0.1,0.3-0.1,0.4-0.2c0.1-0.1,0.3-0.1,0.4,0C49.8,27.2,49.9,27.4,50,27.6z M48,24.2
			c-0.2-0.1-0.3-0.1-0.4,0.1c-0.1,0.1-0.2,0.2-0.4,0.1c0.3,0.1,0.5,0.1,0.7,0.1C48,24.4,48,24.3,48,24.2z M51.6,31.4
			c-0.4,0.4-0.7,0.6-0.9,0.8s-0.4,0.3-0.8,0.4c0.3,0.2,0.5,0.3,0.7,0.2s0.4-0.1,0.6,0c0-0.2,0.1-0.5,0.3-0.7
			C51.7,31.8,51.7,31.6,51.6,31.4z M50.8,23.8c-0.1,0.1-0.3,0.1-0.4,0.1c-0.1,0-0.3,0-0.3,0.1C50.5,24,50.7,24,50.8,23.8z
			 M51.7,30.1c-0.2,0.1-0.4,0.1-0.6-0.1c-0.2-0.1-0.4-0.1-0.6,0c0.1,0.2,0.2,0.3,0.4,0.2c0.2-0.1,0.3,0,0.5,0.1L51.7,30.1z"/>
		<path fill="#2B3990" d="M92.8,45c-0.1,0.2-0.2,0.5-0.2,0.8s0,0.7,0.1,1.1c0,0.4,0.1,0.7,0.1,1.1c0,0.4-0.1,0.7-0.2,1
			c0,0.4-0.1,0.7-0.2,1.1c-0.1,0.4-0.2,0.7-0.4,1.1c0.2,0.2,0.2,0.4,0.1,0.7s-0.1,0.6,0,0.9c-0.2,0.1-0.4,0.2-0.4,0.3
			c-0.1,0.1-0.2,0.3-0.3,0.6c-0.2-0.1-0.3-0.1-0.4,0s-0.2,0.1-0.4,0.2c0.1,0.3,0.1,0.6-0.1,0.7c-0.2,0.1-0.4,0.3-0.6,0.4
			c-0.2,0.1-0.4,0.2-0.6,0.4c-0.2,0.1-0.4,0.3-0.4,0.6c-0.2,0.1-0.4,0.2-0.6,0.4s-0.4,0.2-0.6,0.2c-0.2,0.3-0.4,0.5-0.7,0.5
			c-0.3,0.1-0.4,0.2-0.3,0.5c-0.3,0.2-0.7,0.3-1,0.4c-0.4,0.1-0.6,0.3-0.7,0.7c-0.1-0.1-0.2-0.1-0.3-0.1c-0.1,0-0.2,0-0.3-0.1
			c0,0.1-0.2,0.2-0.4,0.4c-0.2,0.1-0.4,0.1-0.4-0.1c-0.3,0.2-0.7,0.4-1,0.6c-0.4,0.2-0.7,0.2-1,0c-0.3,0.3-0.8,0.4-1.5,0.4
			s-1.2,0.1-1.6,0.3c-0.4-0.2-0.9-0.3-1.5-0.3c-0.6-0.1-1.1-0.1-1.5-0.1c-1-0.2-1.8-0.4-2.5-0.7s-1.4-0.5-2.1-0.6
			c-0.2-0.3-0.4-0.6-0.6-0.8s-0.4-0.4-0.6-0.7c-0.5-0.2-0.9-0.5-1.4-0.8s-0.8-0.7-0.9-1.1c-0.3-0.2-0.7-0.3-1-0.3
			c-0.4,0-0.7,0-1.1,0.2c-0.4,0.1-0.7,0.3-1,0.6c-0.3,0.2-0.5,0.5-0.6,0.7c-0.2,0-0.3,0-0.4,0.1c0,0.1-0.2,0.1-0.4,0.1
			c-0.2,0.4-0.4,0.9-0.6,1.4c-0.2,0.5-0.5,0.9-1.1,1c-0.3-0.1-0.4-0.3-0.4-0.6s0.1-0.6,0.1-0.8c-0.2-0.2-0.3-0.5-0.3-0.8
			c0.1-0.3,0-0.6-0.1-0.8c0.1-0.4,0.1-0.6,0-0.8c-0.1-0.1-0.1-0.3,0-0.5c-0.1-0.1-0.3-0.1-0.4-0.1c-0.1,0-0.3,0-0.4-0.1
			c0-0.3,0-0.8,0.1-1.4s0.3-1,0.7-1.2c0-0.2,0-0.5-0.1-0.6c-0.1-0.2-0.2-0.3-0.3-0.4c-0.1-0.1-0.2-0.3-0.3-0.4
			c-0.1-0.2-0.1-0.4,0-0.7c0.2,0,0.3-0.1,0.4-0.2c0.1-0.1,0.2-0.2,0.3-0.2c-0.1-0.6-0.1-1.1,0-1.6s0-0.9-0.3-1.3
			c-0.3,0-0.4-0.1-0.5-0.3c0-0.2,0-0.4,0.2-0.5c0.1-0.3,0.2-0.5,0.3-0.7s0.2-0.4,0.3-0.5c0.1-0.2,0.2-0.3,0.2-0.5
			c0.1-0.2,0.1-0.4,0-0.6c0.2-0.2,0.3-0.5,0.4-1c0-0.5,0.1-0.9,0.2-1.2c0.1-0.4,0.1-0.8,0-1.1s-0.1-0.7-0.1-1.1
			c0.4-0.1,0.7-0.1,0.9,0.2c0.2,0.2,0.3,0.6,0.4,0.9c0.1,0.4,0.2,0.7,0.3,1.1c0.1,0.4,0.3,0.6,0.7,0.7c0.1,0.1,0.1,0.2,0,0.3
			s-0.1,0.2,0,0.4C63,42.7,63,43.1,63,43.2c0,0.2,0.1,0.4,0.2,0.6c0.2,0,0.3,0,0.4-0.1c0.1-0.1,0.2-0.1,0.3-0.2
			c0.2,0.4,0.3,0.6,0.2,0.7c-0.1,0.1-0.2,0.2-0.3,0.2c-0.1,0.4-0.1,0.7-0.1,0.8c0,0.2,0.1,0.5,0.2,1c0.2,0.6,0.4,1.2,0.6,1.9
			c0.2,0.6,0.4,1.2,0.7,1.6c0.7,0,1.1,0.1,1.2,0.2c0.2,0.1,0.2,0.3,0.2,0.6c0,0.2-0.1,0.5-0.2,0.7s-0.2,0.4-0.4,0.6
			c0.2,0.7,0.6,1.4,1.1,1.9s1,1.1,1.5,1.7c0.2,0.2,0.5,0.4,0.7,0.4s0.4,0.1,0.6,0.2c0.4,0.2,0.8,0.5,1.2,0.9
			c0.4,0.4,0.8,0.6,1.4,0.7c0.6,0.1,1.1,0.2,1.7,0.5c0.6,0.2,1.2,0.4,1.8,0.5c0.4,0,0.8,0.1,1.1,0.2c0.4,0.1,0.8,0.1,1.1,0.1
			c1.5-0.1,3-0.4,4.3-0.9s2.5-1.1,3.6-1.7c0-0.2-0.1-0.3-0.1-0.5s0-0.4,0-0.7c1.2-1,1.9-2.7,1.9-5.1c-0.2,0.2-0.3,0.3-0.5,0.4
			c-0.2,0.1-0.4,0.2-0.7,0.1c-0.1-0.5-0.3-0.7-0.4-0.7c0-0.2,0.2-0.4,0.5-0.5c0.2-0.2,0.3-0.4,0.2-0.5c-0.1-0.1-0.1-0.3,0-0.5
			s0.2-0.4,0.2-0.8c0-0.4-0.2-0.7-0.4-0.8c-0.1,0.2-0.3,0.3-0.6,0.3c-0.3,0.1-0.5,0.2-0.8,0.3C85,47,84.9,46.8,85,46.8
			c0.1-0.1,0.1-0.2,0-0.2c0.1-0.1,0.2-0.2,0.2-0.2s0.2-0.1,0.4,0c0-0.2,0.1-0.4,0.1-0.5s0.1-0.2,0.1-0.4c-0.1-0.3-0.3-0.4-0.5-0.4
			s-0.4,0.1-0.6,0.2c-0.2,0.1-0.4,0.3-0.6,0.5C84,45.9,83.8,46,83.6,46c-0.4,0.1-0.7-0.1-0.9-0.4c-0.2-0.4-0.1-0.7,0.3-0.9
			c0.3-0.2,0.4-0.3,0.3-0.4c-0.1-0.1-0.1-0.1,0-0.2c0.5-0.2,0.8-0.2,0.8-0.1c0,0.1,0.1,0.2,0.2,0.2c0.1-0.1,0-0.2-0.1-0.3
			c-0.2-0.1-0.3-0.1-0.4-0.2c-0.3,0-0.7,0.2-1,0.4s-0.6,0.3-1,0.2c-0.5,0.1-0.8,0.1-0.9-0.1c-0.1-0.2-0.1-0.4,0-0.6
			c0.1-0.2,0.2-0.4,0.3-0.6c0.1-0.2,0.3-0.3,0.5-0.4c-0.1-0.4-0.3-0.6-0.5-0.5s-0.5,0.2-0.7,0.3s-0.5,0.1-0.8,0.1s-0.5-0.1-0.7-0.3
			c-0.1-0.3,0-0.5,0.2-0.6s0.4-0.1,0.6,0c0-0.2,0-0.4-0.2-0.5s-0.3-0.2-0.3-0.4c-0.3,0-0.6,0.1-0.8,0.3c-0.2,0.2-0.4,0.3-0.6,0.3
			c0,0.1-0.1,0.2-0.3,0.3c-0.2,0.1-0.3,0.1-0.5,0c-0.1,0.5-0.3,0.7-0.7,0.9c-0.4,0.1-0.7,0.1-1.1-0.2c0-0.2,0-0.5,0.1-0.8
			c0.2,0,0.4-0.1,0.5-0.2c0.1-0.1,0.3-0.2,0.5-0.2c0.5,0,0.7-0.1,0.7-0.1l0.1-0.1c-0.2,0-0.3-0.1-0.3-0.3c0-0.1-0.1-0.3-0.2-0.4
			c-0.3,0.1-0.5,0.1-0.7,0s-0.4-0.1-0.7,0c-0.1-0.1-0.3-0.2-0.4-0.3c-0.2-0.1-0.3-0.2-0.4-0.4c-0.6,0-1.1-0.1-1.5-0.3
			s-0.9-0.4-1.5-0.5c-0.2,0-0.5,0-0.8-0.2s-0.6-0.3-0.9-0.2c-0.2,0-0.5,0.1-0.6,0.3c-0.2,0.1-0.4,0.2-0.7,0.3
			c-0.1-0.1-0.2-0.2-0.3-0.2c-0.1-0.1-0.2-0.2-0.3-0.2l-0.7-1c-0.2,0.1-0.3,0.2-0.4,0.2c-0.1,0.1-0.2,0.1-0.4,0.2
			c-0.1-0.1-0.2-0.2-0.3-0.2s-0.3-0.1-0.5,0c-0.2-0.8-0.5-1.1-0.8-1.1s-0.6,0.2-1,0.4c-0.3,0.2-0.7,0.4-1,0.6c-0.4,0.2-0.7,0.2-1,0
			c0.2-0.6,0.3-1,0.5-1.2s0.4-0.2,0.8,0c-0.2-0.7-0.4-1-0.7-1s-0.5,0.1-0.8,0.3S61,36,60.7,36.2c-0.3,0.2-0.6,0.3-0.9,0.3
			c-0.4-0.1-0.6-0.4-0.6-0.7c0.1-0.2,0.3-0.4,0.6-0.5s0.5-0.3,0.8-0.5c0.2-0.2,0.4-0.4,0.6-0.6c0.1-0.2,0.1-0.5-0.1-0.8
			c-0.2,0.1-0.5,0.2-0.8,0.2c-0.3,0.1-0.4,0.2-0.5,0.4c-0.2,0-0.3,0-0.4,0c0,0-0.1,0-0.3,0c0-0.2,0.1-0.3,0.1-0.4
			c0-0.1,0-0.2-0.1-0.4c0.3-0.1,0.6-0.4,0.9-0.7c0.2-0.4,0.2-0.7-0.1-1.1c-0.2-0.4-0.4-0.7-0.5-0.9c-0.1-0.2-0.1-0.5-0.1-0.9
			c-0.2,0-0.4,0.1-0.5,0.2s-0.2,0.1-0.4,0c0.5-0.3,0.6-0.5,0.4-0.5c-0.2,0-0.2-0.1-0.2-0.2c0.2-0.2,0.3-0.3,0.3-0.4
			c-0.1-0.1,0-0.2,0.1-0.2c-0.2-0.1-0.3-0.1-0.5-0.1c-0.1,0-0.3,0-0.3,0c0.1-0.5,0.1-0.7-0.1-0.7c-0.2-0.5-0.2-0.8-0.2-0.9
			s0.1-0.3,0.1-0.6c0.2-0.1,0.5-0.3,0.6-0.6c0-0.8,0.1-1.7,0.3-2.6s0.5-1.7,1-2.2c0.2-0.6,0.4-1.2,0.7-1.8c0.2-0.6,0.5-1.1,0.8-1.6
			c0-0.3,0.1-0.5,0.2-0.7s0.3-0.4,0.4-0.5c0.2-0.1,0.3-0.3,0.5-0.5c0.1-0.2,0.2-0.4,0.3-0.6c0.7,0.1,1.1,0.1,1.2-0.2
			c0.1-0.2,0.4-0.4,0.7-0.5c0.4-0.5,0.9-0.8,1.6-1.1c0.6-0.3,1.3-0.6,2.1-0.7c0.7-0.2,1.5-0.3,2.3-0.4c0.8-0.1,1.6-0.2,2.3-0.2
			c0.3,0,0.6,0,0.9,0s0.5,0.1,0.6,0.4c0.7,0.2,1.3,0.3,1.9,0.3s1,0.3,1.4,0.8c0.7,0,1.3,0.4,1.6,1.1c0.3,0.1,0.7,0.2,1,0.3
			s0.6,0.2,0.9,0.4c0,0.3,0.2,0.5,0.4,0.6c0.2,0.1,0.5,0.2,0.7,0.2c0.3,0,0.6,0,0.9,0s0.6-0.1,0.8-0.2c0.6-0.2,1.1-0.5,1.6-0.9
			c0.4-0.4,0.8-0.8,1.1-1.1c-0.1-0.4,0-0.8,0.2-1.1s0.4-0.7,0.5-1.2c0.4,0,0.7,0,0.8,0.2c0.2,0.2,0.3,0.4,0.3,0.7s0,0.6-0.1,0.8
			c-0.1,0.3-0.2,0.5-0.4,0.6c0.1,0.2,0.1,0.5,0.1,0.9s-0.1,0.7-0.2,0.9c0.2,0.7,0.2,1.3,0.2,1.7c-0.1,0.4,0.1,0.9,0.3,1.4
			c0,0.4-0.1,0.8,0,1.3c0,0.4,0.2,0.8,0.4,1.1c-0.2,1.1-0.3,2,0,2.8c0.2,0.8,0.3,1.5,0.2,2.1c-0.1,0.2-0.2,0.5-0.5,0.7
			c-0.2,0.2-0.5,0.3-1,0.2c-0.2-0.7-0.5-1.3-0.9-1.9s-0.8-1.2-1.4-1.6c0-0.3,0-0.5,0-0.7c0.1-0.2,0.1-0.4,0-0.6
			c-0.5-0.3-0.7-0.6-0.7-1c-0.2,0-0.3,0-0.5,0.1s-0.3,0-0.4-0.2c0.1-0.2,0.2-0.4,0.1-0.4c0-0.1-0.1-0.2-0.2-0.3
			c-0.1-0.1-0.2-0.2-0.4-0.3c-0.1-0.1-0.1-0.2-0.1-0.3c-0.2-0.1-0.4-0.2-0.5-0.4c-0.1-0.2-0.3-0.3-0.4-0.4c0-0.7-0.2-1.1-0.6-1.4
			S81,17,80.9,16.5c-0.6-0.2-1.1-0.5-1.4-0.8c-0.4-0.3-0.8-0.6-1.4-0.8c-0.5-0.2-0.8-0.3-1-0.4c-0.2-0.1-0.4-0.1-0.6-0.2
			c-0.2-0.1-0.4-0.2-0.5-0.3c-0.2-0.1-0.4-0.2-0.6-0.3c-0.6,0-1.1-0.1-1.6-0.3c-0.5-0.1-1.1-0.3-1.6-0.4c-0.5,0.2-1,0.3-1.6,0.3
			s-1.1,0.1-1.6,0c-0.3,0.2-0.6,0.3-0.8,0.4c-0.2,0.1-0.4,0.2-0.7,0.3c0.3,0.4,0.4,0.7,0.2,0.7c-0.2,0.1-0.4,0.1-0.7,0
			c-0.2,0.1-0.5,0.1-0.7,0c-0.4,0.2-0.6,0.3-0.5,0.4c0.1,0.1,0.1,0.1,0,0.2c-0.2,0-0.4,0.1-0.6,0.2c-0.1,0.2-0.3,0.4-0.4,0.6
			c-0.1,0.2-0.3,0.4-0.5,0.6S63.9,17,63.6,17c0,0.2,0,0.3-0.1,0.4c0,0.1-0.1,0.2-0.1,0.4c0.4,0.2,0.5,0.4,0.3,0.6
			c-0.1,0.2-0.2,0.3-0.1,0.4c-0.1,0.2-0.3,0.4-0.5,0.5c0.1,0.3,0.2,0.7,0.2,1c0,0.4,0.2,0.7,0.4,1c-0.2,0.1-0.2,0.3-0.1,0.6
			c0.1,0.3,0.3,0.4,0.6,0.4c0.1,0.4,0.3,0.6,0.6,0.8c0.3,0.2,0.6,0.3,1,0.4c0,0.2-0.1,0.4-0.2,0.4c-0.1,0.1-0.2,0.2-0.3,0.2
			c0.1,0.3,0.3,0.5,0.6,0.6c0.3,0,0.7,0.1,1,0.2c0.2,0.5,0.5,0.9,0.7,1.1s0.5,0.3,1,0.3c0.7,0.6,1.5,1.1,2.3,1.4
			c0.8,0.4,1.7,0.8,2.6,1.2c0.4,0,0.8,0,1.1,0.1c0.3,0.1,0.7,0.2,1,0.3s0.6,0.2,0.9,0.3c0.3,0.1,0.6,0.2,0.9,0.2
			c0.7,0.1,1.4,0.2,2.1,0.3c0.8,0.1,1.4,0.2,1.9,0.3c0.5,0.3,1,0.5,1.8,0.7c0.7,0.2,1.4,0.2,2,0c0.4,0.2,0.6,0.2,0.7,0.1
			c0-0.1,0.1-0.2,0.3-0.1c-0.1,0.5-0.1,0.6,0,0.6c0.1-0.1,0.2,0,0.2,0.1c0.2-0.5,0.2-0.6,0.1-0.6c-0.1,0.1-0.2,0-0.1-0.2
			c0.2-0.1,0.4,0,0.5,0.2s0.3,0.2,0.5,0c-0.1,0.6-0.2,0.9-0.3,0.9c-0.1,0-0.2,0.1-0.3,0.2c0.2,0.3,0.4,0.5,0.7,0.6
			c0.3,0.1,0.6,0.2,0.9,0.4c0.3,0.6,0.7,1.1,1.1,1.5c0.5,0.4,0.7,0.9,0.7,1.5c0.2,0.5,0.5,0.9,0.7,1.4s0.4,1,0.5,1.6
			c0.2,0.2,0.3,0.5,0.3,1c0,0.4,0.2,0.7,0.6,0.8c-0.1,0.2-0.2,0.4-0.1,0.6c0,0.1,0.1,0.2,0.1,0.4c0.1,0.8,0.2,1.4,0.2,1.7
			C92.7,44,92.8,44.4,92.8,45z M63.6,23.3c-0.3-0.2-0.5-0.4-0.4-0.6c0-0.1,0-0.3-0.1-0.5c-0.5,0.2-0.9,0.5-1.2,1s-0.7,0.8-1.2,1
			c0,0.4-0.1,0.7-0.3,0.7C60.2,25,60,25,59.8,25.1c-0.2,0.1-0.3,0.2-0.4,0.3c-0.1,0.1-0.1,0.3,0.1,0.6c0.3-0.1,0.6-0.2,0.8-0.3
			c0.2-0.1,0.5-0.2,0.8-0.3c0.3-0.2,0.5-0.4,0.5-0.5s0.1-0.2,0.2-0.3c0.3-0.2,0.7-0.4,1.1-0.5C63.3,24.1,63.5,23.8,63.6,23.3z
			 M62.3,21.3c-0.3,0.2-0.6,0.2-0.8,0.2c-0.5,0.2-0.7,0.5-0.8,0.8c-0.5,0.1-0.7,0.4-0.8,0.9s-0.2,0.9-0.3,1.2
			c0.5-0.2,0.8-0.6,0.9-1.1c0.2,0,0.4,0,0.5-0.1s0.2-0.2,0.3-0.3c0.1-0.1,0.2-0.2,0.2-0.3c0.1-0.1,0.2-0.2,0.4-0.2
			c0.1-0.4,0.2-0.7,0.4-0.8C62.5,21.5,62.5,21.4,62.3,21.3z M68.9,27.8c-0.2,0-0.4-0.1-0.6-0.2s-0.4-0.1-0.6-0.2
			c-0.4,0.3-0.9,0.7-1.4,1.1s-1,0.5-1.5,0.4c0.4-0.4,0.8-0.7,1.1-0.8c0.3-0.1,0.7-0.2,1-0.3c-0.1-0.2-0.1-0.3,0.1-0.3s0.2-0.2,0-0.4
			c-0.5,0.1-0.7,0.1-0.7-0.1c0-0.3,0-0.5-0.1-0.6s-0.2-0.2-0.4-0.3c-0.2,0.1-0.3,0.2-0.4,0.3c0,0.1-0.2,0.1-0.4,0.1
			c-0.4,0.3-0.6,0.4-0.6,0.3s-0.1-0.1-0.2-0.1s-0.1,0,0-0.1s0.2-0.2,0.4-0.3c0.1-0.1,0.3-0.1,0.5-0.2s0.3-0.2,0.4-0.4
			c-0.1-0.1-0.2-0.2-0.3-0.1c-0.1,0-0.2,0.1-0.3,0.2c-0.1,0.1-0.2,0.2-0.3,0.2c-0.1,0.1-0.2,0.1-0.3,0c-0.3,0.2-0.6,0.4-0.8,0.7
			c-0.2,0.3-0.5,0.3-0.8,0c0.5-0.2,0.7-0.4,0.9-0.5c0.1-0.1,0.2-0.1,0.4,0c0.2-0.2,0.4-0.3,0.6-0.2c0.1,0.1,0.2,0.1,0.3,0
			c0-0.3,0-0.5,0-0.7c0.1-0.2,0-0.3-0.2-0.4c0,0.1-0.3,0.2-0.8,0.2c-0.1,0.2-0.2,0.4-0.3,0.5s-0.3,0.2-0.4,0.4
			c0.1-0.3,0.2-0.5,0.2-0.7c0.1-0.2,0.2-0.2,0.5-0.1c0-0.2,0.1-0.3,0.3-0.3s0.3-0.1,0.2-0.4c-0.5-0.1-0.8,0-1.1,0.3
			s-0.6,0.4-1.1,0.4c-0.1,0.2-0.3,0.5-0.5,0.7c-0.4,0-0.7,0.1-1,0.1c0,0.3-0.3,0.4-0.7,0.4c0.1,0.2,0.3,0.4,0.4,0.6
			c0.1,0.2,0,0.2-0.5,0.2c0,0.2,0,0.4,0.1,0.5s0.1,0.2-0.1,0.5c0.1,0.1,0.2,0.1,0.3,0.2c0.1,0,0.2,0.1,0.3,0.2
			c-0.3,0.3-0.5,0.7-0.6,1.1c0.2,0.1,0.3,0.2,0.4,0.3c0.1,0.1,0.3,0.1,0.4,0.2c0.2-0.3,0.5-0.5,0.8-0.7s0.7-0.3,1.1-0.2
			c0.1-0.2,0.3-0.4,0.4-0.5c0.1-0.1,0.3-0.2,0.5-0.2c0-0.2,0.1-0.4,0.3-0.4c0.2-0.1,0.4-0.2,0.5-0.2c0.1-0.2,0.2-0.4,0.3-0.3
			c0.1,0,0.3,0.1,0.4,0.2c0.4-0.1,0.6-0.2,0.8-0.3c0.1-0.1,0.3-0.1,0.3,0c-0.3,0.1-0.6,0.2-0.9,0.5c-0.2,0.2-0.6,0.3-0.9,0.2
			c-0.2,0.2-0.5,0.3-0.7,0.4c0,0.4,0,0.5-0.2,0.5s-0.4,0-0.6,0c0,0.2-0.2,0.4-0.4,0.5S62,29.9,61.9,30c0,0.1-0.2,0.2-0.3,0.3
			c-0.2,0.1-0.4,0.2-0.7,0.1c0,0.2-0.1,0.4-0.3,0.5s-0.3,0.2-0.3,0.4c0.2,0,0.2,0,0.2,0.2s0,0.3,0.1,0.4c0.5-0.5,1.2-0.8,2-1.1
			c-0.1-0.2,0-0.4,0.1-0.6c0.2-0.2,0.4-0.3,0.6-0.4c-0.2,0.7-0.5,1.1-0.9,1.3c-0.4,0.2-0.8,0.4-1.1,0.6c0.2,0.2,0.3,0.3,0.4,0.2
			c0-0.1,0.2-0.1,0.4-0.1c0.4-0.3,0.6-0.5,0.7-0.5c0.1-0.1,0.1-0.1,0.2-0.2c-0.2,0.4-0.4,0.7-0.6,1c-0.2,0.3-0.5,0.4-0.8,0.4
			c-0.1,0.2-0.1,0.3,0,0.4c0.1,0.1,0.1,0.2,0.2,0.3c0.9-0.5,1.6-0.9,2.2-1.3c0.6-0.4,1.1-0.8,1.6-1.2c0.2-0.2,0.4-0.3,0.4-0.3
			c0.1-0.1,0.2-0.1,0.3-0.1c0.1,0,0.2-0.1,0.3-0.1c0.1-0.1,0.2-0.2,0.2-0.3c-0.2,0-0.4,0-0.6,0c-0.2-0.1-0.3-0.1-0.4,0
			c-0.2,0.2-0.3,0.3-0.5,0.5s-0.4,0.2-0.7,0.2c0.5-0.4,1-0.8,1.5-1.1c0.5-0.3,1.1-0.5,1.9-0.7c0.2,0.1,0.3,0.1,0.3-0.1
			s0.1-0.3,0.3-0.4L68.9,27.8z M62.4,21c0-0.2,0.1-0.4,0.1-0.6s0-0.4-0.1-0.7c-0.4,0.2-0.7,0.5-1.1,0.8c-0.3,0.3-0.6,0.7-0.9,1
			c0.1,0.1,0.2,0.1,0.3,0.1s0.2,0,0.3,0.1c0-0.4,0.1-0.5,0.2-0.5c0.1,0,0.3,0,0.4,0.1c0.1,0,0.2,0,0.3,0
			C62.2,21.2,62.3,21.1,62.4,21z M62.1,26.3c0,0.2-0.1,0.3-0.3,0.3s-0.4,0-0.5,0c0.1-0.2,0.2-0.3,0.4-0.3
			C61.8,26.3,62,26.3,62.1,26.3z M62,28.9c0,0.2-0.1,0.3-0.3,0.3s-0.3,0.1-0.4,0.2c0.1-0.1,0.2-0.2,0.3-0.2
			C61.6,29,61.7,28.9,62,28.9z M61.7,47.2c-0.2-0.1-0.4-0.3-0.3-0.4c0-0.1,0-0.2-0.2-0.2C61.3,47,61.5,47.2,61.7,47.2z M64.6,52
			c-0.7-0.4-1.1-0.3-1.4,0.2c-0.2-0.2-0.4-0.4-0.4-0.4s-0.1-0.1-0.1-0.2c0.1,0,0.3,0,0.4,0.1c0.2,0.1,0.3,0.1,0.4,0
			c0.3-0.2,0.5-0.3,0.5-0.5s0.2-0.2,0.4-0.1c0-0.3-0.1-0.7-0.2-1c-0.1-0.4-0.2-0.7-0.4-1c-0.2-0.1-0.4-0.1-0.5-0.2
			c-0.1,0-0.2-0.1-0.3-0.1s-0.2-0.1-0.4-0.1c-0.1,0-0.2-0.1-0.2-0.2c0.3,0,0.5,0,0.6,0.1s0.2,0.1,0.3,0.1c0.1-0.3,0.1-0.6,0.1-0.8
			c-0.1-0.2-0.1-0.4,0-0.6C63,47.1,63,46.9,63,46.6c0-0.3-0.1-0.5-0.3-0.5c-0.1,0.1-0.3,0.2-0.4,0.4c-0.1,0.1-0.3,0.2-0.6,0.1
			c0.3,0.5,0.3,0.7,0,0.7c-0.2,0.6-0.3,1-0.3,1.3c-0.1,0.2-0.1,0.5,0,0.8c0.2-0.1,0.4-0.1,0.4,0.1c0,0.1,0.1,0.2,0.2,0.1
			c0.3-0.2,0.5-0.4,0.7-0.4c0.1,0,0.3,0,0.3-0.1c0,0.2,0,0.5-0.1,0.7s-0.2,0.4-0.4,0.6c-0.3,0.2-0.5,0.4-0.6,0.5
			c0,0.4-0.1,0.7-0.2,0.8c-0.1,0.1-0.2,0.2-0.5,0.2c0.4,0.2,0.7,0.3,0.7,0.1c0.1-0.2,0.2-0.2,0.4-0.1c-0.1,0.4-0.1,0.7-0.1,1
			c-0.3,0.4-0.6,0.5-0.7,0.5c-0.1,0.4-0.2,0.8-0.1,1.1c0.1,0.4,0.1,0.8,0.1,1.2c0.3,0,0.5-0.1,0.6-0.4c0.1-0.3,0.2-0.5,0.4-0.6
			c0-0.2,0-0.4,0.1-0.5s0.2-0.2,0.3-0.3s0.2-0.2,0.3-0.2c0.1-0.1,0.1-0.2,0.1-0.4c0.2-0.1,0.4-0.3,0.5-0.6
			C64.1,52.4,64.3,52.2,64.6,52z M62.4,44.3c0-0.5-0.2-0.7-0.5-0.5s-0.5,0.4-0.5,0.7c0.5,0,0.7-0.1,0.7-0.2
			C62.1,44.3,62.2,44.3,62.4,44.3z M62.6,45.9c-0.1-0.2-0.1-0.4-0.2-0.4c0-0.1-0.1-0.2-0.1-0.4c-0.4,0.2-0.6,0.3-0.6,0.2
			s0-0.1-0.1-0.1c-0.1,0.3-0.1,0.5,0.2,0.5c0.2,0.1,0.3,0.2,0.2,0.4L62.6,45.9z M63.1,27.8c-0.1,0.2-0.3,0.4-0.6,0.5
			s-0.6,0.2-0.8,0.2c0.2-0.1,0.5-0.2,0.7-0.4C62.7,27.9,62.9,27.8,63.1,27.8z M64.1,27.4c-0.4,0.1-0.7,0.1-0.7,0.1
			C63.8,27.2,64.1,27.2,64.1,27.4z M71.8,29.3c-0.4-0.2-0.7-0.3-0.7-0.3c-0.1,0-0.2,0-0.3,0c-0.2-0.2-0.4-0.3-0.5-0.4
			s-0.3-0.1-0.5,0c-0.7,0.7-1.2,1.1-1.7,1.2c-0.1,0.2-0.3,0.4-0.5,0.6s-0.5,0.3-0.8,0.2c-0.1,0.4-0.3,0.6-0.6,0.7
			c-0.3,0.1-0.6,0.2-0.8,0.5c-0.4,0.5-0.9,0.8-1.4,1.1c0.1,0.1,0.2,0.1,0.3,0.1c0.1-0.1,0.2-0.2,0.3-0.2c0.1-0.1,0.3-0.2,0.4-0.2
			c0.1-0.1,0.2-0.1,0.2-0.1c0.2-0.1,0.3-0.1,0.5-0.2c0.1,0,0.3-0.1,0.4-0.2c0.2-0.3,0.3-0.5,0.4-0.6s0.3-0.2,0.4-0.3
			c0.4-0.1,0.6-0.2,0.7-0.2c0.5-0.2,0.7-0.3,0.8-0.2c0.1,0,0.2,0.1,0.3,0.1c0.2-0.1,0.4-0.2,0.5-0.3c0.1-0.1,0.2-0.1,0.4-0.1
			c0,0.2-0.1,0.4-0.3,0.4s-0.4,0-0.5,0.1c-0.2,0.2-0.5,0.4-0.7,0.6c-0.3,0.2-0.6,0.2-0.8,0.1c-0.7,0.5-1.2,0.9-1.7,1.3
			s-1.1,0.6-1.8,0.8c0,0.2,0,0.3-0.2,0.3s-0.2,0.1-0.1,0.3c0.2,0.2,0.3,0.2,0.5,0.2c0.1,0,0.3-0.1,0.4-0.2c0.1-0.1,0.2-0.1,0.4-0.2
			c0.1-0.1,0.2-0.1,0.4,0c0.2-0.3,0.4-0.5,0.7-0.7c0.3-0.1,0.5-0.3,0.5-0.6c0.4,0,0.7-0.2,1-0.4s0.5-0.2,0.8-0.1
			c0.2-0.5,0.5-0.9,0.8-1.2c0.3-0.4,0.7-0.6,1.3-0.7c-0.1-0.3-0.2-0.5-0.2-0.5c0-0.1,0-0.1,0-0.2c0.2,0,0.4-0.1,0.6-0.2
			c0.1-0.1,0.3-0.1,0.6-0.1c0-0.3,0.1-0.4,0.3-0.2C71.6,29.6,71.7,29.5,71.8,29.3z M64.8,29.5c-0.2,0-0.4,0.1-0.5,0.2
			s-0.3,0.2-0.6,0.2c0.2-0.2,0.3-0.4,0.4-0.4c0.1-0.1,0.1-0.2,0.2-0.2L64.8,29.5z M64.6,30.8c-0.1,0-0.2,0.1-0.3,0.2
			c-0.1,0.1-0.2,0.1-0.4,0c0-0.4,0.3-0.6,0.7-0.6C64.6,30.4,64.6,30.8,64.6,30.8z M65.7,53.4c-0.1-0.2-0.2-0.4-0.2-0.6
			c-0.1-0.2-0.2-0.3-0.5-0.3c-0.2,0.4-0.3,0.7-0.4,1c0.5,0,0.7,0,0.8,0C65.5,53.4,65.6,53.4,65.7,53.4z M78.5,31.5
			c0-0.2-0.1-0.3-0.2-0.3s-0.3,0-0.4,0.1s-0.3,0.1-0.4,0.2c-0.1,0-0.3,0-0.3-0.1c-0.2-0.2-0.3-0.4-0.3-0.7c0-0.2-0.3-0.3-0.7-0.2
			c-0.1-0.2-0.2-0.3-0.5-0.4c-0.2-0.1-0.4,0-0.6,0.2v0.9c-0.3,0.2-0.5,0.3-0.6,0.3c0,0-0.1,0-0.2,0.1c-0.1-0.2-0.2-0.2-0.2,0.2
			c0,0.3-0.1,0.4-0.4,0.3c-0.4,0.5-1.1,0.8-1.9,0.9c-0.4,0.2-0.6,0.5-0.7,0.9c-0.4,0.1-0.6,0.2-0.7,0.2s-0.1,0.2-0.1,0.4
			c-0.1-0.3-0.2-0.5-0.3-0.7c-0.1-0.1-0.1-0.3,0.2-0.6c0,0.1,0.1,0.1,0.3-0.1c0.1-0.2,0.3-0.2,0.5-0.1c0.3-0.3,0.5-0.5,0.7-0.6
			c0.1-0.1,0.3-0.1,0.5,0c0.4-0.3,0.6-0.5,0.7-0.6c0-0.1,0.2-0.2,0.4-0.1c0-0.4,0.1-0.6,0.2-0.6s0.1,0-0.1-0.2l0.6-0.5
			c0.2,0,0.3,0,0.3-0.1c0.1-0.1,0.2-0.1,0.3-0.1c-0.2-0.3-0.4-0.5-0.6-0.6c-0.3,0-0.6-0.1-0.9-0.1c-0.2,0-0.5-0.1-0.7-0.2
			c-0.1,0.4-0.2,0.7-0.3,0.7c-0.1,0.1-0.2,0.1-0.4,0.2c-0.3,0.2-0.5,0.4-0.6,0.5C71,31,70.9,31,70.8,31c-0.2,0.1-0.3,0.2-0.5,0.2
			s-0.2,0.1-0.1,0.3c-0.2,0.1-0.5,0.1-0.7,0c-0.3,0.4-0.5,0.6-0.7,0.6s-0.3,0.1-0.4,0.2c-0.2,0.5-0.4,0.8-0.4,0.8
			c-0.1,0-0.1,0.1-0.1,0.2c0.5-0.1,0.7-0.2,0.6-0.2c-0.1-0.1-0.1-0.1,0-0.1c0.3,0,0.5,0,0.7-0.1c0.1-0.1,0.4-0.1,0.8-0.1
			c0-0.2,0.2-0.4,0.4-0.6c0.2-0.1,0.4-0.2,0.7-0.2c0.3-0.1,0.6-0.2,0.9-0.4c0.3-0.1,0.5-0.3,0.6-0.4C72.2,31.8,72,32,71.8,32
			c-0.6,0.4-1.2,0.7-1.9,1c-0.7,0.3-1.3,0.7-1.9,1.1c-0.5,0.4-0.8,0.6-1.1,0.6c-0.2,0-0.5,0.1-0.7,0.3c0.2,0.5,0.3,0.6,0.5,0.5
			s0.4-0.1,0.6,0c0.1-0.1,0.2-0.1,0.3-0.1c0.1,0,0.3,0,0.3-0.1c-0.1-0.2-0.1-0.3,0.1-0.4c0.1-0.1,0.2-0.2,0.1-0.3c0.3,0,0.5,0,0.6,0
			s0.1,0.1,0.2,0.2c-0.3,0.1-0.5,0.3-0.5,0.6c0.2,0,0.3,0,0.4-0.1s0.2-0.2,0.4-0.2C69,35,69,34.9,69,34.8s0.1-0.2,0.2-0.4
			c-0.3,0.1-0.4,0.2-0.5,0.2c0,0-0.1,0-0.2,0.1c0.2-0.4,0.3-0.5,0.4-0.5c0,0,0.1,0.1,0.2,0.1c0-0.2,0.1-0.4,0.2-0.5s0.2-0.1,0.3-0.1
			c-0.1,0.6-0.1,0.9,0,1s0.2,0.2,0.3,0.4c-0.3,0.3-0.5,0.5-0.7,0.6s-0.4,0.1-0.6,0.1c-0.4,0.2-0.5,0.4-0.5,0.4
			c0.1,0,0.1,0.1,0.2,0.1s0.2,0.1,0.3,0.1c0.1,0,0.1,0.1,0.1,0.2c0.2,0,0.5,0,0.7-0.1s0.4-0.2,0.6-0.3s0.3-0.2,0.5-0.3
			c0.1-0.1,0.3-0.1,0.5,0.1c0.1-0.4,0.2-0.6,0.3-0.6c0.1,0,0.1-0.1,0.2-0.1c0.2-0.1,0.4-0.3,0.6-0.4c0.1-0.1,0.3-0.1,0.5,0
			c0.1-0.1,0.2-0.2,0.3-0.2c0.1,0,0.2-0.1,0.3-0.2c-0.1-0.2,0-0.4,0.2-0.5s0.5-0.2,0.7-0.2c0.2-0.3,0.4-0.5,0.5-0.5
			c0.1-0.1,0.3-0.1,0.5,0c0.1-0.3,0.4-0.5,0.8-0.7c0.4-0.1,0.8-0.2,1-0.4c0-0.2,0.1-0.3,0.4-0.3s0.5-0.2,0.6-0.7L78.5,31.5z
			 M67.7,33.3c-0.3,0-0.5,0-0.5,0.1c-0.1,0.1-0.1,0.2-0.2,0.2c-0.3,0.1-0.4,0.2-0.5,0.2c0,0.1-0.1,0.2-0.2,0.4
			c0.2-0.2,0.5-0.2,0.7,0c-0.1-0.3,0-0.5,0.2-0.6C67.5,33.6,67.6,33.5,67.7,33.3z M68.3,29.2c-0.1,0-0.3,0-0.5-0.1s-0.4,0-0.4,0.3
			c0,0,0.1,0,0.4,0C68.1,29.5,68.2,29.4,68.3,29.2z M79.8,32.5c-0.2,0.1-0.5,0.3-0.8,0.5s-0.6,0.2-0.9,0c-0.3,0.3-0.6,0.6-1,0.8
			c-0.4,0.3-0.8,0.4-1.2,0.5c-0.1,0.2-0.3,0.4-0.6,0.6c-0.3,0.1-0.6,0.2-0.9,0c-0.2,0.1-0.3,0.3-0.4,0.5s-0.3,0.2-0.6,0.2
			c-0.3,0.4-0.7,0.7-1.1,0.9s-0.8,0.5-1.1,1c0.3,0.2,0.7,0.3,1.1,0.1s0.7-0.3,1-0.3c0.6-0.5,1.1-0.8,1.4-0.9c0-0.2,0.1-0.4,0.2-0.4
			s0.3,0,0.4,0.1c0-0.3,0.2-0.5,0.4-0.7c0.2-0.2,0.5-0.3,0.7-0.4c0.2-0.1,0.5-0.2,0.8-0.2c0.3-0.1,0.5-0.2,0.7-0.4
			c0.2-0.4,0.5-0.6,0.9-0.7c0.4,0,0.6-0.2,0.7-0.6L79.8,32.5z M73.9,33.1c-0.2-0.1-0.3,0-0.4,0.1c-0.1,0.2-0.2,0.3-0.3,0.3
			c0-0.3,0.2-0.5,0.3-0.6C73.7,32.8,73.8,32.9,73.9,33.1z M74.7,32.4c-0.2,0.1-0.3,0.1-0.5,0.1c-0.1,0-0.3,0-0.5,0.1
			c0.1-0.2,0.3-0.3,0.5-0.3C74.4,32.3,74.6,32.3,74.7,32.4z M84.9,32.8c0-0.2-0.2-0.2-0.4-0.2c-0.2,0-0.4,0-0.5-0.1
			c-0.4,0.2-0.7,0.3-0.8,0.3s-0.2-0.1-0.4,0c-0.5-0.1-0.8-0.1-0.8,0c0,0.2,0,0.2-0.2,0.2c-0.2-0.2-0.4-0.3-0.7-0.1
			c-0.2,0.2-0.3,0.4-0.3,0.8c0,0.5-0.1,0.7-0.4,0.6c-0.2-0.1-0.5-0.1-0.7-0.1c0,0.2-0.1,0.3-0.3,0.3c-0.2,0-0.2,0.1,0,0.3
			c-0.2,0-0.3,0.1-0.5,0c-0.2,0-0.3,0-0.5,0.1c-0.3,0.2-0.5,0.3-0.6,0.5s-0.4,0.3-0.7,0.3c-0.5,0.5-1.1,1-1.6,1.2
			c-0.5,0.3-1,0.7-1.5,1.1c0.5,0.3,1,0.4,1.3,0.3c0.4-0.1,0.8-0.2,1.4-0.3c0.6-0.4,1-0.6,1.2-0.7c0.2-0.3,0.4-0.5,0.6-0.6
			s0.3-0.3,0.5-0.5c0.2,0,0.4-0.1,0.5-0.2c0.1-0.1,0.3-0.2,0.7-0.1c0.3-0.3,0.6-0.6,0.8-0.8c0.2-0.2,0.5-0.3,0.8-0.4
			c0.4-0.2,0.6-0.3,0.7-0.2c0,0.1,0.1,0.1,0.2,0.1c0.2-0.3,0.4-0.4,0.6-0.4c0.1-0.2,0.2-0.4,0.2-0.5s0.2-0.1,0.4,0
			c0-0.2,0.1-0.3,0.3-0.4s0.3-0.2,0.2-0.3L84.9,32.8z M75.1,37c-0.4-0.1-0.6,0-0.6,0.4C74.9,37.4,75.1,37.3,75.1,37z M75.7,32
			c-0.1,0.1-0.2,0.2-0.2,0.3c-0.1,0.1-0.2,0.2-0.3,0.2c0-0.2,0.1-0.3,0.2-0.3C75.4,32.1,75.6,32.1,75.7,32z M76.6,36.2
			c-0.1-0.1-0.1-0.2-0.2-0.3c0-0.1-0.2-0.2-0.4-0.2c0,0.2-0.1,0.3-0.2,0.3c-0.2,0.1-0.2,0.2-0.1,0.3c0.1-0.1,0.3-0.1,0.5-0.1
			C76.3,36.3,76.5,36.3,76.6,36.2z M77.4,33c-0.1-0.2-0.2-0.3-0.4-0.3c-0.2,0-0.3,0-0.4,0.1c0,0.2,0.1,0.2,0.3,0.2
			C77.1,33.1,77.3,33.1,77.4,33z M91.8,43.8c0.1-0.5,0-0.8-0.1-0.9c-0.2-0.1-0.3-0.3-0.4-0.5c0.2,0,0.3-0.2,0.2-0.4
			c-0.1-0.2,0-0.4,0.2-0.5c-0.1-0.1-0.2-0.2-0.3-0.3c-0.1-0.1-0.2-0.1-0.3-0.2c0.2-0.3,0.2-0.8,0-1.4c-0.2-0.6-0.4-1-0.7-1.2
			c-0.1-0.3-0.2-0.6-0.4-0.7c-0.1,0.1-0.2,0.1-0.4,0.1c-0.2,0-0.3,0-0.4,0.1c0.2,0.1,0.4,0.1,0.6,0.1c0.1,0,0.2,0,0.2,0.1
			c0,0.3-0.2,0.5-0.5,0.6c-0.6-0.3-0.9-0.5-1-0.4c0,0.5-0.1,0.9-0.3,1.1c-0.1,0.2-0.3,0.3-0.5,0.4c-0.2,0.1-0.4,0.1-0.7,0.1
			c-0.3,0-0.5-0.1-0.7-0.2c0.1-0.2,0.3-0.3,0.5-0.2c0.2,0,0.4,0.1,0.6,0.2c0.1-0.2,0.2-0.4,0.1-0.6c0-0.2,0-0.4,0.1-0.4
			c0.6-0.4,1-0.7,1-0.9c0.4-0.1,0.7-0.2,0.7-0.3c0.1-0.1,0.2-0.1,0.4,0c0.2-0.7,0.1-1.3-0.3-1.7s-0.7-0.7-1.1-1.1
			c-0.2,0.1-0.4,0.1-0.4,0c-0.1-0.1-0.2-0.1-0.4-0.2c-0.2,0.1-0.4,0.2-0.4,0.3s-0.1,0.1-0.3,0c-0.1,0.2-0.1,0.4,0,0.4
			c0.1,0.1,0.1,0.2-0.1,0.2c0-0.1,0-0.2-0.1-0.2s-0.2,0-0.3,0c-0.1,0-0.2,0-0.2,0C86,35.2,86,35.1,86,35c0.2,0,0.3-0.1,0.4-0.2
			c0.1-0.2,0.2-0.2,0.4-0.1c-0.1-0.1-0.3-0.1-0.5-0.1S86,34.7,86,34.9c-0.2-0.3-0.4-0.5-0.5-0.5s-0.2,0.1-0.3,0.1
			c-0.3,0.4-0.5,0.6-0.6,0.7c-0.1,0.1-0.2,0.2-0.4,0.2c-0.1,0.1-0.2,0.1-0.3,0.2c-0.1,0-0.2,0-0.3-0.1c-0.2,0.3-0.4,0.6-0.7,0.7
			c-0.3,0.1-0.6,0.2-1.1,0.3c-0.5,0.4-0.8,0.7-1.1,0.8c-0.2,0.1-0.4,0.2-0.6,0c0,0.3-0.2,0.6-0.5,0.8c-0.4,0.2-0.7,0.3-1,0.2
			c-0.3,0.3-0.5,0.5-0.6,0.6s-0.1,0.2-0.2,0.3c0.1,0.1,0.2,0.1,0.4,0.2c0.1,0,0.2,0.1,0.4,0.2c0.1-0.2,0.3-0.4,0.6-0.4
			c0.3,0,0.5-0.1,0.7-0.3c0.1,0.2,0.2,0.2,0.4,0.2c0.1-0.1,0.2-0.2,0.4-0.4c0.1-0.2,0.3-0.2,0.7,0c-0.1-0.5,0-0.8,0.2-0.9
			c0.2,0,0.5-0.2,0.7-0.5c0.4,0.2,0.5,0.4,0.4,0.5s-0.2,0.2-0.4,0.4c-0.1,0-0.3,0-0.4-0.1s-0.2,0-0.3,0.2c0.4,0.1,0.7,0.2,0.9,0.2
			c0.2,0,0.4,0,0.6-0.1c-0.1,0.1-0.3,0.3-0.5,0.4c-0.2,0.2-0.5,0.2-0.8,0.1c-0.2,0.4-0.5,0.7-0.6,0.9c-0.2,0.2-0.3,0.4-0.5,0.6
			c0.2,0,0.4,0,0.6-0.1s0.3-0.2,0.5-0.3c0.1-0.1,0.3-0.2,0.4-0.4c0.1-0.1,0.3-0.2,0.5-0.2c0.5,0,0.7,0.1,0.7,0.3
			c0.1,0,0.3-0.1,0.5-0.1s0.4-0.1,0.5-0.3c0-0.3,0.1-0.5,0.3-0.6c0.2-0.1,0.3-0.2,0.4-0.2c0.2,0,0.4,0.1,0.4,0.4
			c0,0.2,0.2,0.4,0.5,0.3c0-0.2,0.1-0.2,0.3-0.2c0.2,0.1,0.4,0,0.5-0.2c-0.3,0.1-0.5,0.1-0.6-0.1c-0.1-0.1-0.1-0.3,0-0.5
			c0-0.4,0-0.7,0-0.7c0.2,0.1,0.4,0,0.5-0.2s0.2-0.2,0.4,0c0-0.2,0-0.4,0.1-0.5s0.2-0.2,0.2-0.3c0.4,0,0.6,0.1,0.6,0.1s0.1,0,0.2,0
			s0.1,0,0.2,0s0.1,0.1,0.2,0.2c-0.2,0-0.3,0.1-0.4,0.3s-0.2,0.2-0.4,0.2c-0.1,0-0.2,0-0.4,0.1c-0.1,0.1-0.2,0.2-0.3,0.4
			c-0.2,0.5-0.4,0.7-0.6,0.7c-0.1,0-0.2,0.1-0.3,0.2c0.2,0,0.3-0.1,0.5-0.2c0.2-0.1,0.3-0.1,0.4,0c0.1,0.5,0.1,0.7-0.1,0.8
			s-0.3,0-0.4-0.2c-0.2,0.4-0.4,0.6-0.7,0.8c-0.3,0.2-0.6,0.1-0.7-0.1c-0.2,0.5-0.3,0.8-0.5,0.9c-0.2,0.1-0.3,0.2-0.4,0.2
			c-0.1,0.1-0.3,0.2-0.7,0.2S83,41.4,83,41.7c0.4-0.1,0.7-0.1,1-0.2c0.2,0,0.5-0.1,0.9-0.2c0.3-0.1,0.6-0.1,0.8,0.1
			c0.2,0.1,0.4,0.1,0.5-0.1c0.2,0.2,0.4,0.3,0.5,0.2s0.2-0.1,0.3,0c0.3-0.2,0.5-0.3,0.7-0.4s0.2-0.1,0.2,0s0.1,0.2,0.2,0.2
			c0.2,0,0.3,0,0.5-0.1c-0.1,0.6-0.2,0.9-0.5,0.9s-0.4,0.1-0.5,0.3c-0.2,0-0.4-0.1-0.5-0.1s-0.3-0.1-0.4-0.2c0,0.3,0,0.4,0.2,0.4
			c0.1,0,0.3,0,0.5,0c0.2,0.2,0.4,0.3,0.4,0.3c0.1-0.1,0.2-0.1,0.3,0c0.3,0,0.5-0.1,0.6-0.2c0.1-0.1,0.2-0.1,0.2-0.2
			c-0.2,0.1-0.3,0.3-0.4,0.5s-0.3,0.3-0.6,0.4c-0.2,0.1-0.5,0.1-0.7,0.2c-0.2,0-0.4,0.1-0.5,0.2c-0.1,0.6-0.2,0.9-0.1,0.9
			s0.1,0.1,0.2,0.1s0.2,0,0.3,0s0.2,0,0.3,0.1c0.2-0.2,0.4-0.3,0.6-0.2c0.1,0.1,0.2,0.1,0.2,0c0.5-0.6,0.8-0.9,1-1.1
			c0.1,0.1,0.2,0.2,0.3,0.2c0.1,0.1,0.2,0.1,0.3,0.1c0,0.2,0,0.3,0.1,0.3c0.1,0.1,0.2,0.2,0.2,0.3c-0.2,0-0.3,0.1-0.4,0.2
			c-0.1,0.1-0.2,0.1-0.3,0c-0.2,0.2-0.4,0.2-0.4,0.2c-0.1-0.1-0.2-0.1-0.4,0c0,0.1,0,0.2,0,0.4c-0.1,0.1-0.1,0.2-0.1,0.3
			c-0.2,0.3-0.5,0.5-0.7,0.7c-0.2,0.1-0.4,0.4-0.4,0.7c0.3,0,0.6,0.1,0.7,0c0.2,0,0.4-0.1,0.6-0.2c0.1,0.4,0.1,0.6,0.1,0.8
			c-0.5,0-0.7,0.1-0.7,0.3c0.2,0.2,0.3,0.4,0.3,0.4c-0.1,0.1-0.1,0.2-0.2,0.2c0.1,0.2,0.3,0.3,0.4,0.2c0.2,0,0.4-0.1,0.6-0.1
			c0.2-0.4,0.4-0.6,0.5-0.6s0.3,0,0.5-0.1c0.2,0.4,0.2,0.7,0,0.7c-0.2,0.1-0.5,0.2-0.8,0.3c0,0.4-0.2,0.6-0.6,0.8c0,0,0,0.2,0,0.6
			c0,0.4,0,0.6,0,0.8c0.1,0.1,0.3,0.1,0.5-0.1c0.2-0.1,0.4-0.1,0.5,0.1c0.2-0.3,0.3-0.5,0.3-0.7c0-0.1-0.1-0.3-0.2-0.3
			c0.2,0.3,0.3,0.5,0.5,0.5c0.2,0.1,0.2,0.2,0.1,0.4c-0.4,0.4-0.7,0.6-0.8,0.7c-0.1,0.1-0.2,0.1-0.4,0.2c0.3,0.1,0.5,0.1,0.7-0.1
			c0.2-0.2,0.4-0.3,0.8-0.4c0-0.2,0-0.3,0.1-0.5s0.2-0.4,0.2-0.5c0.1-0.2,0.1-0.3,0.1-0.4c0-0.1-0.1-0.2-0.3-0.3
			c-0.3-0.1-0.5-0.1-0.6,0c0,0.1-0.1,0.1-0.2,0.1c0.5-0.3,0.7-0.6,0.7-0.7c0-0.1,0.1-0.2,0.3-0.2c0.1-0.2,0-0.3-0.1-0.3
			c-0.2,0-0.3-0.1-0.4-0.2c0.1-0.3,0.3-0.5,0.4-0.6s0.3-0.1,0.5,0.1c0.2-0.6,0.3-1.2,0.2-1.9c0-0.6-0.1-1.2-0.3-1.8L91.8,43.8z
			 M80.8,31.4c-0.2,0.1-0.4,0.1-0.6,0c-0.1-0.1-0.4-0.2-0.7-0.1c-0.1,0.2-0.2,0.3-0.4,0.4c-0.2,0-0.4,0.1-0.6,0.2
			c0.2,0.2,0.6,0.2,1.1,0.2C80.1,31.9,80.5,31.7,80.8,31.4z M80.8,33c-0.1-0.1-0.3-0.1-0.5-0.1S79.9,33,80,33.2
			c0.1,0.1,0.2,0.1,0.4,0C80.6,33.1,80.7,33.1,80.8,33z M82,43.6c0-0.3,0-0.5-0.2-0.4c-0.2,0-0.4,0.1-0.6,0.1
			C81.2,43.7,81.5,43.8,82,43.6z M82.7,40.2c0-0.2-0.2-0.4-0.5-0.6c-0.3,0.4-0.4,0.6-0.2,0.6S82.5,40.2,82.7,40.2z M83.3,32.4
			c-0.2,0-0.3-0.1-0.3-0.3c0-0.1-0.1-0.2-0.3-0.2c-0.1,0.1-0.2,0.2-0.2,0.2c-0.1,0.1-0.2,0.1-0.4,0.1c0.2,0.1,0.5,0.2,0.6,0.4
			c0-0.2,0-0.3,0.2-0.2C82.9,32.5,83.1,32.5,83.3,32.4z M86.1,35.9c-0.2-0.1-0.4-0.2-0.7-0.1S85,36.1,85,36.4
			c0.4,0.3,0.6,0.5,0.6,0.7c-0.2,0-0.4,0-0.4,0C85.1,37,85,37,84.8,37c0,0.1-0.1,0.2-0.2,0.3s-0.2,0.2-0.4,0.1
			c-0.4,0.2-0.7,0.5-0.7,0.7c-0.2,0-0.4-0.1-0.4-0.2c-0.1-0.1-0.2-0.2-0.4-0.3c0.1-0.1,0.2-0.2,0.4-0.2c0.2,0,0.3-0.1,0.5-0.2
			c-0.1-0.2-0.1-0.4-0.2-0.5c0-0.1,0-0.2,0-0.3c0.3,0.3,0.5,0.5,0.6,0.6c0.1,0,0.3,0.1,0.6,0.1c-0.2-0.3-0.4-0.4-0.4-0.4
			s-0.1,0-0.2-0.1c0-0.3,0-0.6,0.1-0.7c0.1-0.1,0.3-0.2,0.7,0c0.1-0.1,0.2-0.2,0.3-0.3c0.1-0.1,0.2-0.2,0.3-0.2
			c0.2,0,0.3,0.1,0.4,0.1c0,0,0.2,0,0.4-0.1L86.1,35.9z M84.2,17.1c-0.2,0-0.4,0-0.5,0.1s-0.4,0.1-0.7,0c-0.1,0.1-0.1,0.2,0.1,0.3
			c0.1,0.1,0.2,0.2,0.2,0.3c0.1-0.1,0.3-0.2,0.5-0.3C84,17.5,84.1,17.3,84.2,17.1z M84.1,44.2c-0.2,0.2-0.3,0.3-0.5,0.4
			c-0.1,0.1-0.2,0.2,0,0.3c0.1-0.1,0.2-0.2,0.3-0.2C84,44.6,84.1,44.4,84.1,44.2z M83.9,40.4c-0.2-0.1-0.2-0.2-0.2-0.3
			s-0.1-0.2-0.2-0.3c0,0.4,0,0.6,0.1,0.7C83.7,40.5,83.8,40.5,83.9,40.4z M84.8,34.4c0-0.3-0.1-0.4-0.4-0.4c-0.2,0-0.4,0.1-0.5,0.2
			c0.1,0.2,0.2,0.2,0.4,0.1C84.4,34.3,84.5,34.3,84.8,34.4z M85.8,41.8c-0.1-0.1-0.2-0.2-0.1-0.3s0-0.2-0.2-0.3
			c-0.3,0.1-0.6,0.2-0.8,0.4c-0.2,0.2-0.3,0.3-0.5,0.4c0.2,0.1,0.4,0.1,0.7,0C85.2,41.8,85.5,41.8,85.8,41.8z M86.1,33.8
			c0-0.2-0.1-0.3-0.2-0.3s-0.2-0.1-0.2-0.3c-0.2,0.1-0.4,0.2-0.5,0.2s-0.2,0.1-0.3,0.2c0.4,0.2,0.6,0.2,0.7,0.2
			C85.7,33.9,85.9,33.8,86.1,33.8z M86.3,40.4c-0.1,0.2-0.2,0.3-0.5,0.2c-0.2-0.1-0.4,0-0.5,0.3C85.5,40.6,85.8,40.4,86.3,40.4z
			 M86.6,36.1c-0.3,0.2-0.5,0.2-0.6,0.2s-0.2,0-0.3,0C85.8,36.1,86.1,36.1,86.6,36.1z M87,40.2c-0.4,0.1-0.8,0-1.2-0.2
			c0.1-0.2,0.2-0.3,0.4-0.2c0.2,0.1,0.3,0.1,0.4,0L87,40.2z M87.4,17.1c-0.4,0.2-0.7,0.4-0.8,0.5c-0.2,0.1-0.3,0.2-0.5,0.2
			c0.2,0.2,0.4,0.4,0.3,0.7c0,0.3-0.1,0.5-0.2,0.8c0.3,0,0.5-0.1,0.6-0.3c0.1-0.2,0.2-0.3,0.4-0.5c0.4,0,0.5-0.1,0.4-0.5
			C87.4,17.8,87.4,17.4,87.4,17.1z M87.5,42.7c-0.4,0-0.7-0.1-0.9-0.2c-0.2-0.1-0.2,0-0.2,0.2c0.1,0.1,0.3,0.2,0.4,0.2
			c0.2,0,0.4,0,0.6,0.1L87.5,42.7z M87.7,20.5c-0.1-0.2-0.1-0.4,0-0.6s0.1-0.3,0-0.5c-0.3,0-0.5,0-0.6,0.2c0,0.2-0.2,0.3-0.5,0.2
			c0.1,0.5,0.2,0.8,0.5,0.7C87.3,20.6,87.5,20.6,87.7,20.5z M87.7,24.8c0.4-0.2,0.5-0.6,0.4-1.1c-0.2-0.5-0.3-0.9-0.4-1.2
			c-0.3,0.2-0.5,0.6-0.5,1.1C87.2,24.2,87.4,24.6,87.7,24.8z M90.8,40.1c-0.2,0-0.3,0.1-0.4,0.2s-0.3,0.1-0.5,0
			c-0.2,0.3-0.4,0.5-0.4,0.6s-0.1,0.2-0.2,0.2c-0.4,0.1-0.6,0-0.8-0.1c-0.2-0.2-0.4-0.2-0.8-0.2c0.2-0.4,0.5-0.5,0.9-0.3
			c0.2-0.1,0.4-0.2,0.6-0.3s0.4-0.2,0.5-0.4c0.5,0,0.8,0,0.9,0.1C90.7,39.8,90.8,39.9,90.8,40.1z M88.4,44.8
			c-0.2,0.1-0.3,0.1-0.3-0.1c0-0.1-0.1-0.1-0.3-0.1C88.2,45,88.4,45,88.4,44.8z M88.7,54.2c-0.2-0.1-0.3-0.1-0.5,0.1
			c-0.1,0.1-0.3,0.3-0.3,0.5c0.2,0,0.3,0,0.3-0.2s0.2-0.2,0.4-0.2L88.7,54.2z M89.2,44.5c0-0.1-0.1-0.2-0.1-0.3S89,43.9,89,43.9
			c-0.2,0.2-0.2,0.4-0.1,0.5C89,44.4,89.1,44.4,89.2,44.5z M90,41.5c-0.1,0.5-0.2,0.6-0.4,0.6c-0.1-0.1-0.3-0.1-0.4,0
			c0.4-0.3,0.6-0.5,0.6-0.6C89.9,41.5,89.9,41.5,90,41.5z M90,50.6c-0.1,0.1-0.2,0.2-0.3,0.2c-0.1,0-0.2,0.1-0.4,0.1
			c0.1-0.1,0.2-0.2,0.2-0.3C89.6,50.5,89.8,50.5,90,50.6z M90.4,45.5c0,0.1,0,0.2-0.1,0.4s-0.2,0.2-0.4,0.2
			c-0.2,0.4-0.3,0.5-0.4,0.5c0,0-0.1-0.1-0.2-0.1c0.1,0,0.2-0.2,0.3-0.5C89.8,45.7,90.1,45.5,90.4,45.5z M91.1,42.9
			c-0.2,0.2-0.4,0.3-0.6,0.2s-0.4-0.2-0.5-0.4c0.4-0.1,0.7-0.1,0.7,0C90.8,42.7,90.9,42.8,91.1,42.9z M90.8,43.8
			c-0.2,0-0.3-0.1-0.4-0.2c0-0.1-0.2-0.2-0.4-0.2c0.5-0.1,0.7-0.1,0.7,0.1C90.8,43.6,90.8,43.7,90.8,43.8z M91,45.4
			c-0.3,0.2-0.5,0.3-0.5,0.1c-0.1-0.2-0.1-0.2-0.2-0.1c-0.1-0.3,0-0.4,0.2-0.2C90.6,45.3,90.8,45.4,91,45.4z M91.6,44.5
			c0.1,0.2,0.1,0.4-0.1,0.4c-0.1,0.1-0.2,0.2-0.2,0.4c-0.1-0.1-0.1-0.2-0.1-0.4s-0.1-0.3-0.3-0.4c0-0.2,0.1-0.2,0.3-0.2
			C91.3,44.3,91.5,44.4,91.6,44.5z"/>
	</g>
	<g>
		<path fill="#F7941E" d="M13.2,75.5c-0.3,0.5-0.7,0.8-1.2,1c-0.4,0.2-0.9,0.3-1.5,0.3c-0.5,0-1-0.1-1.5-0.3
			c-0.5-0.2-0.8-0.4-1.2-0.8C7.5,75.4,7.2,75,7,74.5c0-0.4,0-0.9,0-1.4s0.1-1,0.3-1.5c0.2-0.5,0.4-0.8,0.8-1.2
			c0.3-0.3,0.7-0.6,1.2-0.8c0.4-0.2,0.9-0.3,1.5-0.3c0.5,0,0.9,0.1,1.3,0.3c0.4,0.2,0.8,0.5,1.1,0.9L12.7,71
			c-0.2-0.3-0.5-0.6-0.8-0.7C11.3,70,11,70,10.6,70c-0.5,0-0.9,0.1-1.2,0.2c-0.4,0.2-0.7,0.4-0.9,0.7c-0.3,0.3-0.5,0.6-0.6,1
			s-0.2,0.8-0.2,1.2s0.1,0.9,0.2,1.2c0.1,0.4,0.3,0.7,0.6,1C8.7,75.6,9,75.8,9.4,76s0.8,0.2,1.2,0.2c0.2,0,0.4,0,0.6-0.1
			c0.2,0,0.4-0.1,0.6-0.2s0.4-0.2,0.5-0.3s0.3-0.3,0.4-0.5L13.2,75.5z"/>
		<path fill="#F7941E" d="M20.3,69.5h1.9c0.1,0,0.2,0,0.4,0c0.2,0,0.3,0,0.5,0.1s0.4,0.1,0.6,0.2s0.4,0.2,0.5,0.3
			c0.2,0.1,0.3,0.3,0.4,0.5s0.1,0.5,0.1,0.8s-0.1,0.6-0.2,0.8s-0.3,0.4-0.4,0.5c-0.2,0.1-0.4,0.2-0.6,0.3c-0.2,0.1-0.4,0.1-0.6,0.1
			l2.1,3.4h-0.8l-2-3.4H21v3.4h-0.7C20.3,76.5,20.3,69.5,20.3,69.5z M20.9,72.7h1.4c0.3,0,0.6,0,0.8-0.1c0.2-0.1,0.4-0.2,0.5-0.3
			s0.2-0.3,0.2-0.4s0.1-0.3,0.1-0.4s0-0.3-0.1-0.4c0-0.1-0.1-0.3-0.2-0.4s-0.3-0.2-0.5-0.3c-0.2-0.1-0.5-0.1-0.8-0.1h-1.4V72.7z"/>
		<path fill="#F7941E" d="M32,69.5h4.3v0.6h-3.7v2.5H36v0.6h-3.4V76h3.8v0.6H32V69.5z"/>
		<path fill="#F7941E" d="M45.9,69.5h0.7l3,7.1h-0.7L48,74.7h-3.8l-0.8,1.9h-0.7L45.9,69.5z M46.2,70.3l-1.7,3.9h3.2L46.2,70.3z"/>
		<path fill="#F7941E" d="M57.2,70.1h-2.4v-0.6h5.5v0.6h-2.4v6.5h-0.7C57.2,76.6,57.2,70.1,57.2,70.1z"/>
		<path fill="#F7941E" d="M67.2,69.5h0.7v7.1h-0.7V69.5z"/>
		<path fill="#F7941E" d="M74.6,69.5h0.7l2.3,6.2l2.3-6.2h0.7l-2.7,7.1h-0.7L74.6,69.5z"/>
		<path fill="#F7941E" d="M87.3,69.5h4.3v0.6H88v2.5h3.4v0.6H88V76h3.8v0.6h-4.5V69.5z"/>
		<path fill="#F7941E" d="M6.9,79.5h2.2c0.6,0,1.1,0.1,1.6,0.2c0.4,0.2,0.8,0.3,1.1,0.6c0.3,0.2,0.5,0.5,0.7,0.8s0.3,0.6,0.4,0.8
			c0.1,0.3,0.1,0.5,0.1,0.7s0,0.4,0,0.4s0,0.2,0,0.4c0,0.2-0.1,0.4-0.1,0.7c-0.1,0.3-0.2,0.5-0.4,0.8s-0.4,0.5-0.7,0.8
			c-0.3,0.2-0.6,0.4-1.1,0.6c-0.4,0.1-0.9,0.2-1.6,0.2H6.9V79.5z M7.6,86H9c0.5,0,0.9-0.1,1.3-0.2c0.4-0.1,0.8-0.3,1.1-0.5
			s0.5-0.5,0.7-0.9s0.3-0.8,0.3-1.3s-0.1-0.9-0.3-1.3s-0.4-0.7-0.7-0.9s-0.7-0.4-1.1-0.5c-0.4-0.1-0.8-0.2-1.3-0.2H7.6V86z"/>
		<path fill="#F7941E" d="M19.8,79.5h4.3v0.6h-3.7v2.5h3.4v0.6h-3.4V86h3.8v0.6h-4.5v-7.1H19.8z"/>
		<path fill="#F7941E" d="M31.3,85.3c0.2,0.3,0.4,0.5,0.7,0.7c0.3,0.1,0.6,0.2,0.9,0.2c0.2,0,0.4,0,0.6-0.1s0.4-0.2,0.5-0.3
			c0.1-0.1,0.3-0.3,0.3-0.4c0.1-0.2,0.1-0.4,0.1-0.6s-0.1-0.4-0.2-0.6s-0.2-0.3-0.4-0.4s-0.4-0.2-0.6-0.3c-0.2-0.1-0.4-0.1-0.7-0.2
			s-0.5-0.2-0.7-0.2s-0.4-0.2-0.6-0.4s-0.3-0.3-0.4-0.6s-0.2-0.5-0.2-0.8s0.1-0.6,0.2-0.8c0.1-0.2,0.3-0.4,0.5-0.6s0.5-0.3,0.7-0.4
			c0.3-0.1,0.6-0.1,0.9-0.1c0.4,0,0.7,0.1,1.1,0.2s0.6,0.4,0.9,0.7l-0.6,0.4c-0.2-0.2-0.4-0.4-0.6-0.5c0-0.2-0.3-0.2-0.6-0.2
			c-0.2,0-0.4,0-0.6,0.1c-0.2,0.1-0.4,0.1-0.5,0.2c-0.1,0.1-0.3,0.2-0.3,0.4c-0.1,0.2-0.1,0.4-0.1,0.6c0,0.4,0.1,0.6,0.3,0.8
			c0.2,0.2,0.4,0.3,0.7,0.5c0.3,0.1,0.6,0.2,0.9,0.3c0.3,0.1,0.6,0.2,0.9,0.3c0.3,0.1,0.5,0.3,0.7,0.6c0.2,0.2,0.3,0.6,0.3,1
			c0,0.3-0.1,0.6-0.2,0.9s-0.3,0.5-0.5,0.6c-0.2,0.2-0.4,0.3-0.7,0.4s-0.5,0.1-0.8,0.1c-0.5,0-0.9-0.1-1.3-0.2
			c-0.4-0.2-0.7-0.4-1-0.8L31.3,85.3z"/>
		<path fill="#F7941E" d="M42.1,79.5h0.7v7.1h-0.7V79.5z"/>
		<path fill="#F7941E" d="M55.9,86.2c-0.4,0.2-0.8,0.4-1.3,0.5c-0.4,0.1-0.9,0.1-1.4,0.1s-1-0.1-1.5-0.3c-0.5-0.2-0.8-0.4-1.2-0.8
			c-0.3-0.3-0.6-0.7-0.8-1.2s-0.3-1-0.3-1.5s0.1-1,0.3-1.5s0.4-0.8,0.8-1.2c0.3-0.3,0.7-0.6,1.2-0.8c0.5-0.2,0.9-0.3,1.5-0.3
			c1.1,0,1.9,0.3,2.5,1l-0.5,0.5c-0.1-0.1-0.2-0.2-0.4-0.4c-0.2-0.1-0.3-0.2-0.5-0.3s-0.4-0.1-0.6-0.2c-0.2,0-0.4-0.1-0.6-0.1
			c-0.5,0-0.9,0.1-1.2,0.2c-0.4,0.2-0.7,0.4-0.9,0.7c-0.3,0.3-0.5,0.6-0.6,1s-0.2,0.8-0.2,1.2s0.1,0.9,0.2,1.2
			c0.1,0.4,0.3,0.7,0.6,1s0.6,0.5,0.9,0.7c0.4,0.2,0.8,0.2,1.2,0.2s0.7,0,1.1-0.1c0.3-0.1,0.6-0.2,0.9-0.3v-2.4h-1.7v-0.6h2.4
			L55.9,86.2L55.9,86.2z"/>
		<path fill="#F7941E" d="M63.3,79.5h0.8l4.3,6.2l0,0v-6.2h0.7v7.1h-0.9l-4.3-6.2l0,0v6.2h-0.7v-7.1H63.3z"/>
		<path fill="#F7941E" d="M76.4,79.5h4.3v0.6H77v2.5h3.4v0.6H77V86h3.8v0.6h-4.5L76.4,79.5L76.4,79.5z"/>
		<path fill="#F7941E" d="M87.8,79.5h1.9c0.1,0,0.2,0,0.4,0c0.2,0,0.3,0,0.5,0.1c0.2,0,0.4,0.1,0.6,0.2s0.4,0.2,0.5,0.3
			c0.2,0.1,0.3,0.3,0.4,0.5s0.1,0.5,0.1,0.8S92.1,82,92,82.2s-0.3,0.4-0.4,0.5c-0.2,0.1-0.4,0.2-0.6,0.3c-0.2,0.1-0.4,0.1-0.6,0.1
			l2.1,3.4h-0.8l-2-3.4h-1.2v3.4h-0.7C87.8,86.5,87.8,79.5,87.8,79.5z M88.4,82.7h1.4c0.3,0,0.6,0,0.8-0.1c0.2-0.1,0.4-0.2,0.5-0.3
			s0.2-0.3,0.2-0.4s0.1-0.3,0.1-0.4s0-0.3-0.1-0.4c0-0.1-0.1-0.3-0.2-0.4s-0.3-0.2-0.5-0.3c-0.2-0.1-0.5-0.1-0.8-0.1h-1.4V82.7z"/>
	</g>
</g>
</svg>
